<?xml version="1.0" standalone="no"?>
<!DOCTYPE svg PUBLIC "-//W3C//DTD SVG 20010904//EN"
 "http://www.w3.org/TR/2001/REC-SVG-20010904/DTD/svg10.dtd">
<svg version="1.0" xmlns="http://www.w3.org/2000/svg"
 width="600.000000pt" height="338.000000pt" viewBox="0 0 600.000000 338.000000"
 preserveAspectRatio="xMidYMid meet">
<g transform="translate(0.000000,338.000000) scale(0.066667,-0.066667)"
fill="#000000" stroke="none">
<path d="M600 5048 c0 -22 27 -46 39 -34 10 10 -10 56 -26 56 -7 0 -13 -10
-13 -22z"/>
<path d="M1725 5058 c0 -6 -21 -20 -48 -29 -68 -26 -43 -39 31 -16 60 19 86
57 40 57 -13 0 -23 -5 -23 -12z"/>
<path d="M1845 5055 c0 -8 -10 -15 -22 -15 -13 0 -23 -7 -23 -15 0 -23 23 -18
62 15 30 24 31 29 9 30 -14 0 -26 -7 -26 -15z"/>
<path d="M815 5030 c6 -5 15 -5 20 0 6 6 1 10 -10 10 -11 0 -16 -4 -10 -10z"/>
<path d="M7897 5009 c-6 -9 -3 -24 6 -33 13 -13 17 -8 17 16 0 36 -8 42 -23
17z"/>
<path d="M1565 4970 c-10 -4 -15 -17 -10 -29 9 -22 -58 -96 -87 -96 -8 0 -11
-7 -5 -15 5 -8 2 -15 -7 -15 -9 0 -16 -10 -16 -22 0 -27 25 -31 33 -6 3 10 53
22 110 28 87 9 93 11 35 13 -77 2 -88 45 -26 101 45 41 30 65 -27 41z"/>
<path d="M1283 4875 c-6 -8 1 -15 14 -15 12 0 23 7 23 15 0 8 -6 15 -14 15 -8
0 -18 -7 -23 -15z"/>
<path d="M4535 4865 c6 -5 15 -5 20 0 6 6 1 10 -10 10 -11 0 -15 -4 -10 -10z"/>
<path d="M4835 4835 c6 -5 15 -5 20 0 6 6 1 10 -10 10 -11 0 -15 -4 -10 -10z"/>
<path d="M3840 4814 c-214 -19 -480 -86 -480 -119 0 -11 10 -11 32 1 17 9 47
14 67 10 19 -4 32 -2 28 4 -3 6 54 9 128 7 129 -3 155 7 113 43 -9 7 1 9 21 4
64 -14 211 8 211 31 0 18 42 21 233 18 128 -1 237 2 242 7 13 13 -435 9 -595
-6z m-125 -84 c-5 -5 -14 -5 -20 0 -5 6 -1 10 10 10 11 0 16 -4 10 -10z"/>
<path d="M6845 4820 c6 -5 15 -5 20 0 6 6 1 10 -10 10 -11 0 -15 -4 -10 -10z"/>
<path d="M1395 4792 c0 -13 7 -20 15 -14 9 5 12 15 7 23 -13 21 -22 17 -22 -9z"/>
<path d="M1359 4787 c-7 -10 -8 -23 -3 -28 13 -13 28 6 21 28 -5 15 -9 15 -18
0z"/>
<path d="M4499 4787 c18 -12 14 -18 -20 -34 -39 -18 -40 -19 -10 -30 62 -23
31 -43 -63 -40 -72 2 -79 4 -31 8 48 4 61 11 55 27 -9 25 -73 30 -87 7 -6 -8
-29 -15 -53 -15 -24 0 -47 7 -52 15 -6 9 -69 14 -148 13 -104 -2 -121 -5 -70
-12 l68 -9 -90 -10 c-49 -6 -97 -20 -105 -31 -9 -12 -42 -25 -75 -31 -41 -6
-53 -5 -38 5 17 11 12 15 -22 15 -25 0 -72 4 -105 9 l-60 8 35 -31 c45 -40 42
-43 -63 -55 -63 -8 -85 -5 -85 9 0 10 10 14 23 10 12 -5 22 -3 22 4 0 28 -38
25 -64 -4 -29 -33 -34 -47 -12 -33 8 5 18 2 23 -7 6 -8 -1 -15 -15 -15 -14 0
-28 14 -33 30 -8 32 -24 35 -71 15 -30 -13 -23 -17 37 -21 12 -1 24 -14 27
-29 5 -24 -4 -27 -86 -22 -93 6 -104 1 -73 -30 10 -10 13 -22 8 -27 -6 -6 -18
8 -28 30 -11 25 -29 38 -49 37 -25 -1 -26 -3 -5 -8 14 -4 26 -16 26 -27 0 -11
4 -33 10 -48 5 -15 4 -23 -2 -17 -7 6 -24 4 -39 -3 -20 -11 -34 -8 -52 11 -24
24 -25 23 -15 -12 7 -20 7 -32 0 -26 -6 7 -24 -3 -39 -21 -16 -17 -28 -25 -28
-18 0 8 -12 15 -27 15 -21 0 -25 -11 -22 -53 3 -42 1 -47 -9 -23 -7 16 -10 36
-5 43 4 8 0 9 -10 3 -9 -6 -17 -25 -17 -42 0 -18 -5 -27 -11 -21 -11 11 -13
17 -17 58 -5 44 -27 60 -61 42 -18 -10 -27 -25 -21 -34 6 -11 1 -14 -16 -7
-16 6 -22 4 -16 -6 6 -10 -1 -14 -17 -11 -20 3 -29 -5 -30 -29 -1 -18 4 -30
10 -26 7 4 19 -4 28 -19 8 -15 15 -19 16 -9 0 10 -11 28 -24 41 -28 29 -23 30
38 4 l48 -20 -40 -26 c-22 -15 -53 -23 -69 -19 -15 4 -25 2 -21 -3 3 -6 -9
-20 -27 -31 -29 -18 -30 -18 -14 2 16 19 12 23 -25 24 -24 0 -53 -10 -64 -23
-17 -20 -15 -22 16 -12 23 7 32 6 26 -4 -5 -9 -1 -18 10 -22 11 -3 2 -15 -22
-27 -22 -12 -42 -28 -45 -36 -2 -9 -18 -16 -34 -17 -54 -3 -61 -6 -41 -19 12
-7 -10 -13 -56 -15 -60 -2 -76 2 -76 21 0 13 -7 19 -15 14 -9 -5 -15 -17 -14
-27 6 -44 -1 -61 -17 -45 -20 20 -69 9 -80 -18 -8 -22 -100 -52 -162 -52 -42
0 -71 26 -47 43 7 5 23 30 35 55 12 24 24 50 27 56 3 6 -2 11 -10 11 -9 0 -32
-32 -50 -71 -32 -67 -38 -71 -91 -70 -63 2 -72 -10 -24 -32 18 -8 33 -21 34
-29 2 -21 -143 -27 -180 -7 -24 13 -52 13 -105 1 -62 -13 -76 -12 -92 8 -16
21 -22 22 -43 3 -31 -25 -26 -25 -55 -1 -13 11 -21 30 -16 42 5 11 1 21 -7 21
-9 0 -18 -8 -21 -17 -3 -9 -19 -18 -35 -20 -93 -9 -163 -68 -80 -68 22 0 29 7
23 23 -7 16 2 22 32 22 44 -1 85 -27 87 -56 1 -11 3 -24 4 -31 2 -15 108 -67
117 -58 3 3 -15 14 -40 25 -46 19 -59 50 -28 69 17 10 126 10 328 -2 l98 -5 4
-54 c3 -29 10 -53 17 -53 6 0 8 18 4 40 -6 32 -3 38 17 30 17 -6 25 -1 25 14
0 12 -7 19 -15 14 -23 -15 -18 21 6 45 18 18 27 14 60 -29 39 -52 40 -52 219
-73 21 -3 36 -13 34 -23 -2 -10 4 -18 14 -18 10 0 -5 -24 -33 -52 -28 -29 -45
-58 -38 -64 7 -6 15 -3 19 7 9 26 34 24 34 -2 0 -12 22 1 52 31 29 29 50 58
46 64 -4 7 21 23 56 38 35 14 55 29 45 33 -11 4 -16 13 -11 21 4 7 18 9 30 4
12 -4 26 2 31 16 5 13 17 24 27 24 9 0 27 13 39 30 12 17 30 30 39 30 10 0 22
10 26 23 5 12 20 22 33 22 13 0 65 27 115 61 57 38 103 58 121 54 21 -6 32 3
44 36 13 38 17 41 37 21 28 -28 13 -112 -21 -112 -17 0 -19 -5 -6 -20 16 -19
7 -85 -11 -85 -5 0 -11 -29 -14 -64 -6 -86 -36 -129 -84 -120 -111 21 -272
-82 -287 -185 -6 -36 -18 -71 -27 -79 -24 -20 -389 -47 -407 -30 -8 7 -24 13
-36 13 -17 0 -16 -5 5 -21 28 -19 27 -21 -4 -31 -41 -13 -63 0 -63 39 0 23 -7
28 -30 21 -42 -14 -38 20 4 37 32 13 32 13 -8 14 -36 1 -41 -5 -41 -45 0 -25
-6 -42 -13 -37 -37 22 -100 -10 -100 -49 0 -40 -1 -40 -82 -36 -45 3 -76 -1
-70 -7 7 -7 25 -13 41 -14 16 -1 43 -3 59 -4 75 -5 -6 -75 -97 -84 -59 -5 -92
-23 -44 -23 28 -1 28 -1 0 -18 -21 -12 -36 -12 -56 1 -34 21 -98 22 -111 2
-15 -26 -35 -16 -27 14 9 32 -42 91 -78 91 -14 0 -22 14 -22 38 0 22 -6 35
-15 30 -8 -6 -15 1 -15 14 0 14 7 21 15 15 8 -5 15 -1 15 8 0 9 12 14 26 10
15 -4 52 -12 83 -17 31 -5 53 -15 49 -23 -10 -15 123 -39 138 -24 5 5 -2 9
-16 9 -14 0 -25 7 -25 15 0 8 -12 10 -26 5 -15 -6 -22 -5 -17 1 9 10 40 19 77
23 6 0 11 9 11 18 0 10 -13 13 -34 7 -88 -25 -121 -28 -110 -11 7 11 -2 17
-28 17 -21 0 -38 6 -38 13 0 8 -17 17 -38 21 -29 5 -37 2 -31 -13 5 -12 -1
-21 -13 -21 -12 0 -25 14 -30 30 -6 17 -21 31 -35 31 -21 1 -21 3 -3 10 12 5
28 18 34 29 7 11 21 20 32 20 11 0 32 14 47 30 27 30 67 41 67 17 0 -6 41 -23
90 -37 131 -37 220 -127 129 -131 -18 -1 -2 -11 36 -23 37 -12 76 -32 86 -46
17 -23 19 -23 19 6 0 17 -8 34 -19 38 -14 4 -13 12 4 30 58 64 60 68 36 87
-16 14 -18 22 -5 30 10 6 13 19 7 29 -20 31 -39 -17 -29 -71 12 -62 -14 -65
-76 -7 -25 22 -93 61 -150 85 -58 23 -114 49 -124 57 -26 20 -74 0 -109 -45
-41 -52 -68 -27 -37 33 13 23 20 50 17 59 -8 26 -52 -69 -51 -114 0 -63 -68
-109 -176 -120 -25 -2 -49 -10 -54 -16 -12 -16 -228 -20 -252 -5 -69 43 171
266 311 288 34 5 62 17 62 25 0 8 11 23 25 34 30 22 -55 41 -88 20 -15 -10
-15 -13 -1 -13 27 0 24 -40 -4 -50 -16 -7 -22 1 -22 28 0 20 -7 37 -15 37 -8
0 -15 -17 -15 -37 0 -21 -7 -38 -15 -38 -8 0 -15 27 -15 60 0 33 -7 60 -15 60
-8 0 -15 -16 -15 -36 0 -38 -35 -84 -64 -84 -24 0 -70 -45 -65 -65 2 -10 1
-12 -3 -5 -3 6 -19 0 -34 -14 -16 -14 -25 -31 -20 -38 5 -8 2 -12 -6 -10 -19
6 -78 -61 -78 -88 0 -11 7 -20 15 -20 8 0 14 -15 13 -34 -1 -25 -3 -27 -8 -7
-4 14 -14 26 -23 26 -8 0 -11 -10 -7 -22 5 -12 1 -27 -9 -33 -12 -7 -5 -14 19
-20 46 -12 45 -65 -3 -116 -23 -25 -26 -34 -11 -34 16 -1 15 -6 -5 -21 -14
-11 -26 -33 -25 -48 1 -24 3 -24 14 5 8 19 21 34 30 34 8 0 15 17 15 38 0 24
6 35 16 29 9 -6 13 -19 8 -30 -5 -13 18 -7 62 16 79 42 105 45 146 14 37 -28
75 -28 104 2 13 13 24 16 24 7 0 -10 35 -16 86 -16 110 0 229 -41 229 -78 0
-15 -10 -27 -22 -27 -12 0 -56 -30 -98 -67 -42 -38 -85 -68 -96 -68 -11 0 -31
-16 -44 -36 -39 -59 -175 -69 -248 -18 -31 22 -64 39 -73 39 -9 0 -36 8 -59
17 -53 22 -96 27 -86 10 4 -6 17 -12 29 -12 12 0 22 -7 22 -15 0 -8 -6 -15
-13 -15 -8 0 -17 -14 -22 -32 -6 -25 -17 -30 -47 -25 -30 6 -38 2 -38 -20 0
-15 -10 -28 -22 -28 -13 0 -23 7 -23 15 0 8 8 15 18 15 11 0 13 5 4 13 -28 26
-109 2 -101 -29 7 -26 70 -41 129 -30 7 1 8 -6 2 -15 -12 -19 35 -58 71 -59
14 0 44 -8 67 -18 60 -25 156 -26 166 -2 4 12 33 20 74 20 36 0 90 10 120 23
29 12 67 22 83 22 16 0 70 41 120 91 155 153 318 194 407 101 26 -27 58 -51
70 -53 12 -2 50 -7 83 -10 32 -4 80 -17 105 -30 27 -14 82 -24 139 -24 100 0
213 -51 213 -97 0 -12 7 -26 17 -31 11 -8 13 4 5 38 -9 43 -7 48 16 39 54 -20
224 -38 230 -23 8 23 35 16 71 -18 l34 -31 -8 31 c-10 38 54 45 109 13 18 -10
68 -38 113 -62 107 -57 135 -91 125 -149 -5 -26 -4 -42 2 -36 7 7 20 -10 31
-36 11 -26 24 -44 29 -39 5 5 1 23 -9 41 -9 18 -13 42 -9 54 5 13 2 19 -6 13
-9 -5 -15 15 -15 50 0 53 -5 61 -41 70 -23 5 -68 28 -101 50 -83 55 -128 78
-151 78 -11 0 -23 5 -27 11 -4 6 85 12 198 12 112 0 235 5 272 12 166 28 218
29 239 4 11 -13 27 -24 35 -24 9 0 27 -10 41 -23 23 -20 34 -20 106 0 l82 23
-68 -8 c-67 -8 -120 22 -120 68 0 8 -9 15 -19 15 -10 0 -27 13 -38 30 -10 17
-28 30 -41 30 -12 0 -22 4 -22 8 0 13 33 73 44 82 6 4 29 33 52 63 23 31 55
60 71 65 17 5 27 19 23 29 -5 11 13 48 38 83 26 34 48 83 50 107 2 25 25 79
50 120 50 80 59 110 28 99 -10 -4 -17 -13 -16 -20 1 -8 -7 -22 -19 -33 -31
-28 -29 111 2 142 12 12 18 29 14 36 -5 8 1 24 13 36 12 13 25 31 29 41 6 16
11 16 28 0 17 -16 17 -21 -2 -33 -19 -13 -19 -15 2 -15 14 0 29 -8 33 -19 5
-10 7 3 6 30 -1 27 -7 49 -14 49 -6 0 -7 10 -2 22 4 13 13 20 20 16 6 -4 34 4
62 18 36 18 43 27 25 31 -14 3 -41 -3 -59 -13 -25 -14 -36 -14 -40 -1 -3 9
-12 13 -20 8 -13 -8 -8 35 10 95 4 13 -4 14 -30 4 -19 -7 -39 -9 -44 -4 -5 5
-9 1 -9 -9 0 -10 -7 -15 -15 -9 -8 5 -15 2 -15 -7 0 -9 -17 -16 -38 -16 -22 0
-52 -7 -68 -16 -23 -12 -35 -10 -53 8 -25 25 -81 32 -81 9 0 -7 7 -16 16 -19
9 -3 -16 -7 -55 -8 -40 -2 -82 -13 -93 -25 -19 -18 -15 -21 25 -18 36 2 42 -1
30 -16 -11 -13 -31 -16 -56 -10 -58 15 -85 10 -121 -20 -18 -15 -44 -29 -58
-30 -14 -2 -42 -7 -63 -13 -29 -7 -32 -6 -15 6 27 20 2 22 -28 4 -14 -9 -15
-16 -3 -24 19 -12 -15 -52 -47 -54 -11 0 -4 -7 14 -15 21 -8 49 -7 74 2 21 8
42 12 46 8 11 -11 -24 -65 -49 -75 -13 -5 -19 -16 -14 -25 15 -24 -39 -58 -94
-59 -59 0 -72 36 -57 158 10 78 12 82 54 82 57 0 151 84 193 173 42 90 38 106
-6 22 -43 -82 -84 -127 -144 -158 -58 -30 -83 -16 -52 31 14 22 17 39 8 45
-10 6 -10 19 1 38 8 16 14 38 13 48 -8 59 12 71 286 171 868 317 1868 195
2615 -319 65 -45 122 -81 127 -81 6 0 29 -20 52 -44 23 -24 61 -52 85 -63 24
-11 48 -33 52 -49 4 -17 12 -26 17 -21 10 10 93 -66 87 -80 -3 -5 6 -18 18
-28 19 -16 21 -15 13 5 -16 42 7 27 32 -20 13 -25 35 -45 51 -45 18 0 30 -14
36 -45 l9 -44 45 26 c25 14 46 36 46 48 0 20 2 20 16 0 13 -18 15 -18 11 -1
-6 20 -71 36 -69 17 3 -30 -6 -33 -24 -8 -14 19 -17 35 -7 47 9 11 6 24 -8 39
-13 12 -18 27 -12 33 5 5 -2 5 -16 0 -34 -13 -34 17 0 37 23 13 24 17 4 31
-18 12 -19 17 -2 28 16 10 15 15 -4 22 -13 5 -23 4 -22 -2 5 -32 -4 -68 -13
-55 -7 8 -35 16 -64 19 -36 3 -46 0 -32 -10 13 -8 15 -17 5 -23 -19 -12 -38
15 -25 36 5 8 23 15 41 15 30 0 30 2 -9 42 -22 23 -40 47 -40 53 0 5 -13 23
-30 40 -16 17 -30 41 -30 53 0 13 -7 20 -15 15 -8 -5 -27 -3 -41 6 -15 8 -21
15 -13 16 7 0 4 10 -6 22 -10 13 -24 19 -30 16 -6 -4 -20 2 -30 15 -15 18 -15
22 2 22 11 0 5 10 -14 23 -18 13 -40 20 -48 14 -8 -5 -15 -2 -15 7 0 9 -10 16
-22 16 -12 0 -26 8 -32 17 -7 12 -3 14 10 7 12 -6 8 -1 -8 12 -16 13 -22 24
-15 24 8 0 -5 13 -30 29 -24 16 -49 26 -56 22 -6 -4 -7 5 -2 19 5 15 4 22 -2
16 -7 -6 -22 -3 -34 7 -17 14 -25 13 -37 -4 -12 -17 -13 -17 -6 5 10 31 -43
66 -60 39 -7 -12 -14 -9 -24 8 -7 13 -9 31 -4 39 5 8 2 15 -6 15 -8 0 -25 11
-38 24 -22 21 -24 21 -24 0 0 -13 -6 -24 -14 -24 -8 0 -24 11 -37 24 -13 13
-24 19 -24 14 0 -6 -10 0 -22 12 -28 28 -30 46 -4 30 31 -20 106 -16 79 4 -12
9 -18 22 -12 28 7 7 -2 6 -18 -2 -44 -21 -128 -23 -128 -4 0 11 -14 14 -37 8
-23 -6 -38 -3 -38 7 0 8 -8 11 -18 5 -11 -7 -14 -3 -8 12 11 28 -69 56 -139
48 -39 -5 -46 -1 -39 18 7 18 2 21 -25 12 -30 -9 -31 -8 -13 14 18 21 17 25
-2 25 -13 0 -35 5 -50 10 -20 8 -24 4 -17 -15 7 -18 2 -25 -19 -25 -17 0 -30
7 -30 16 0 9 -8 11 -17 5 -9 -5 -21 -2 -28 8 -8 15 -22 13 -58 -5 -46 -24 -56
-19 -48 26 1 7 -5 8 -14 3 -8 -5 -15 -3 -15 6 0 9 7 16 16 16 9 0 6 10 -7 23
-18 18 -35 20 -93 7 -75 -17 -156 -7 -175 21 -7 11 -15 11 -22 2 -6 -9 -32
-16 -56 -17 -25 -2 -62 -7 -83 -12 -32 -8 -33 -7 -7 5 28 13 28 14 -4 15 -22
1 -30 8 -25 23 5 11 18 17 30 13 13 -5 21 1 21 16 0 13 -6 24 -14 24 -7 0 -26
4 -41 9 -22 7 -23 6 -6 -7z m-247 -85 c28 -21 27 -22 -12 -22 -22 0 -40 7 -40
15 0 8 -10 15 -22 15 -13 0 -23 -10 -23 -22 0 -13 -7 -23 -15 -23 -8 0 -10 10
-6 21 5 13 -3 24 -19 28 -15 4 3 8 40 9 38 0 80 -9 97 -21z m-582 -47 c-5 -5
-14 -5 -20 0 -5 6 -1 10 10 10 11 0 16 -4 10 -10z m1291 -44 c-5 -5 -18 -6
-29 -1 -12 5 -8 8 9 9 16 0 25 -3 20 -8z m479 -106 c-5 -5 -10 -1 -10 10 0 11
5 16 10 10 6 -5 6 -14 0 -20z m-2554 -150 c8 -20 6 -21 -13 -5 -26 21 -29 30
-10 30 8 0 18 -11 23 -25z m139 -76 c-3 -15 -7 -3 -7 26 0 29 4 41 7 26 4 -14
4 -38 0 -52z m2780 65 c0 -3 -10 -10 -22 -14 -13 -5 -23 -3 -23 5 0 8 10 15
23 15 12 0 22 -3 22 -6z m-2947 -24 c5 -8 2 -15 -7 -15 -9 0 -16 7 -16 15 0 8
3 15 7 15 3 0 10 -7 16 -15z m97 -75 c0 -8 -3 -15 -7 -15 -3 0 -10 7 -15 15
-6 8 -3 15 6 15 9 0 16 -7 16 -15z m935 -256 c-18 -18 -149 -25 -165 -9 -21
21 31 41 89 35 49 -6 56 -3 57 25 1 32 1 32 18 -2 10 -22 11 -39 1 -49z
m-1357 14 c-32 -20 -46 -15 -25 8 11 11 25 17 32 13 7 -4 4 -14 -7 -21z m1122
-8 c-5 -5 -14 -5 -20 0 -5 6 -1 10 10 10 11 0 16 -4 10 -10z m-1199 -22 c12
-12 30 -12 67 0 l50 17 -36 -30 c-19 -16 -41 -26 -49 -22 -7 5 -13 3 -13 -5 0
-8 -17 -11 -37 -7 -33 7 -38 2 -38 -36 l0 -42 -116 -5 c-180 -7 -268 61 -99
75 48 4 89 15 92 25 3 9 28 17 56 17 28 0 54 7 60 15 12 20 42 19 63 -2z
m1144 2 c0 -8 -7 -15 -16 -15 -9 0 -12 7 -6 15 5 8 12 15 15 15 4 0 7 -7 7
-15z m100 5 c-5 -5 -14 -5 -20 0 -5 6 -1 10 10 10 11 0 16 -4 10 -10z m245 -5
c0 -8 -3 -15 -7 -15 -3 0 -10 7 -15 15 -6 8 -3 15 6 15 9 0 16 -7 16 -15z
m-80 -40 c-5 -5 -10 -1 -10 10 0 11 5 15 10 10 5 -5 5 -14 0 -20z m-194 -45
c50 -18 64 -17 64 4 0 11 7 21 15 21 8 0 15 -7 15 -16 0 -9 7 -12 15 -7 74 46
84 25 35 -78 -33 -70 -37 -91 -24 -126 22 -58 -23 -242 -74 -305 -7 -9 -26
-34 -42 -56 -26 -34 -46 -41 -131 -50 -136 -14 -178 -34 -270 -124 -76 -76
-136 -110 -227 -130 -59 -13 -51 32 8 47 23 5 32 14 23 23 -8 8 -39 3 -79 -12
-79 -31 -160 -32 -318 -5 -163 28 -157 63 11 63 77 0 94 4 92 24 -1 14 10 24
27 24 16 0 32 9 35 19 4 11 -6 19 -25 19 -17 0 -31 5 -31 10 0 19 50 65 70 65
11 0 20 7 20 15 0 8 7 15 16 15 8 0 39 24 68 53 71 71 170 142 198 142 33 0
105 81 147 166 21 41 43 74 50 74 7 0 10 14 5 30 -4 17 1 40 11 53 10 12 13
23 6 24 -8 0 10 7 39 14 31 7 55 6 57 -2 3 -8 17 -15 30 -15 14 -1 18 -5 8 -8
-9 -4 -13 -20 -9 -36 11 -43 -34 -84 -54 -49 -12 21 -19 23 -34 8 -14 -14 -9
-21 24 -34 25 -9 38 -23 33 -36 -5 -14 1 -18 21 -13 23 6 25 13 13 36 -12 22
-10 28 8 28 13 0 19 9 14 22 -5 12 8 36 30 55 22 18 39 42 39 53 0 18 12 17
71 -5z m-431 -20 c0 -8 -7 -15 -16 -15 -9 0 -12 7 -6 15 5 8 12 15 15 15 4 0
7 -7 7 -15z m120 8 c0 -3 -8 -11 -17 -17 -11 -7 -14 -4 -7 7 11 17 24 23 24
10z m-845 -18 c-5 -5 -14 -5 -20 0 -5 6 -1 10 10 10 11 0 16 -4 10 -10z m3825
0 c-5 -5 -14 -5 -20 0 -5 6 -1 10 10 10 11 0 16 -4 10 -10z m-3014 -71 c-14
-11 -26 -27 -26 -35 0 -65 -101 -182 -177 -206 -19 -6 -52 -28 -75 -49 -97
-91 -155 -124 -178 -102 -24 25 -124 56 -142 44 -19 -11 -16 71 4 127 35 102
211 144 242 58 19 -51 266 15 266 72 0 10 10 27 22 37 12 10 21 22 19 28 -7
27 38 79 54 63 13 -14 11 -23 -9 -37z m3057 21 c5 -8 2 -15 -7 -15 -9 0 -16 7
-16 15 0 8 3 15 7 15 3 0 10 -7 16 -15z m-5277 -69 c-5 -5 -18 -6 -29 -1 -12
5 -8 8 9 9 16 0 25 -3 20 -8z m1294 -36 c0 -8 -7 -15 -15 -15 -8 0 -15 7 -15
15 0 8 7 15 15 15 8 0 15 -7 15 -15z m4192 -89 c4 -7 -5 -10 -22 -5 -35 9 -39
19 -8 19 12 0 25 -6 30 -14z m-5260 -158 c-9 -21 -22 -38 -28 -38 -6 0 -3 17
6 37 10 21 22 38 28 38 6 0 4 -17 -6 -37z m-372 -38 c0 -19 -16 -19 -45 0 -18
12 -16 15 11 15 19 0 34 -7 34 -15z m356 -24 c-5 -5 -18 -6 -29 -1 -12 5 -8 8
9 9 16 0 25 -3 20 -8z m1496 -9 c87 -39 -22 -79 -185 -67 -174 13 -166 49 14
68 70 7 128 14 130 15 1 1 20 -6 41 -16z m-1822 -4 c0 -15 -29 -22 -37 -8 -6
8 1 15 14 15 12 0 23 -3 23 -7z m1161 -8 c-22 -22 -111 -37 -111 -18 0 15 36
27 97 31 19 1 24 -3 14 -13z m319 -23 c13 -34 1 -40 -108 -48 -92 -8 -100 -6
-95 19 10 49 186 74 203 29z m-1075 -7 c30 -10 32 -12 8 -12 -17 -1 -44 5 -60
12 -39 16 1 16 52 0z m-465 -7 c0 -15 -29 -22 -37 -8 -6 8 1 15 14 15 12 0 23
-3 23 -7z m1736 -35 c68 -3 124 -10 124 -14 0 -46 -202 -122 -253 -95 -28 15
-34 12 -47 -21 -15 -40 -240 -62 -240 -23 0 9 -15 12 -34 7 -37 -9 -89 37
-107 94 -8 24 -1 32 32 39 23 5 58 14 78 20 28 7 34 5 28 -12 -7 -17 11 -20
101 -15 l108 5 -6 -43 c-5 -33 -1 -29 17 18 12 33 23 62 23 65 0 3 12 0 26 -6
15 -7 82 -15 150 -19z m949 -43 c0 -6 -14 -26 -32 -45 -33 -35 -61 -78 -87
-136 -17 -38 -73 -56 -135 -44 -24 5 -46 3 -49 -5 -2 -7 -33 -18 -68 -24 -76
-12 -86 12 -19 46 24 13 52 37 61 54 9 18 41 42 70 54 36 15 48 26 36 34 -26
16 103 63 204 74 11 1 19 -3 19 -8z m-1559 -54 c-2 -18 -22 -15 -29 5 -3 10 2
15 12 12 10 -4 18 -11 17 -17z m-561 -51 c-5 -5 -14 -5 -20 0 -5 6 -1 10 10
10 11 0 16 -4 10 -10z m558 -66 c117 -36 165 -67 142 -90 -11 -11 -31 -7 -67
14 -28 16 -83 33 -124 39 -94 13 -114 22 -114 47 0 29 46 26 163 -10z m347
-74 c0 -8 -6 -15 -14 -15 -8 0 -18 7 -23 15 -6 8 1 15 14 15 12 0 23 -7 23
-15z m75 -15 c-48 -37 -60 -37 -60 0 0 24 10 30 49 30 l49 -1 -38 -29z m285
-22 c44 -16 48 -21 25 -31 -28 -11 -140 18 -154 41 -12 18 70 12 129 -10z
m-120 -37 c12 -8 18 -18 14 -22 -12 -12 -134 9 -134 23 0 17 92 16 120 -1z
m-1805 -56 c-5 -5 -14 -5 -20 0 -6 6 -1 10 10 10 11 0 16 -4 10 -10z"/>
<path d="M3770 3995 c6 -5 15 -5 20 0 6 6 1 10 -10 10 -11 0 -15 -4 -10 -10z"/>
<path d="M3605 3862 c-5 -13 -5 -27 -1 -31 4 -4 11 7 15 23 10 36 -1 42 -14 8z"/>
<path d="M3432 3860 c11 -5 24 -4 29 1 5 5 -4 8 -20 8 -17 -1 -21 -4 -9 -9z"/>
<path d="M3661 3826 c-10 -17 -26 -26 -43 -21 -15 4 -36 -3 -46 -15 -25 -31
-7 -93 29 -96 36 -3 46 14 27 42 -12 16 -17 17 -23 3 -8 -21 -35 -11 -35 13 0
8 15 14 34 12 55 -6 113 17 120 46 14 51 -38 64 -63 16z"/>
<path d="M3720 3720 c0 -8 7 -15 16 -15 9 0 12 7 7 15 -6 8 -13 15 -16 15 -4
0 -7 -7 -7 -15z"/>
<path d="M3395 3710 c6 -5 15 -5 20 0 6 6 1 10 -10 10 -11 0 -15 -4 -10 -10z"/>
<path d="M3680 3695 c6 -5 15 -5 20 0 6 6 1 10 -10 10 -11 0 -15 -4 -10 -10z"/>
<path d="M3620 3650 c6 -5 15 -5 20 0 6 6 1 10 -10 10 -11 0 -15 -4 -10 -10z"/>
<path d="M3728 3514 c-8 -21 -6 -23 9 -8 10 10 15 22 10 27 -5 5 -13 -4 -19
-19z"/>
<path d="M3102 3395 c11 -5 24 -4 29 1 5 5 -4 8 -20 8 -17 -1 -21 -4 -9 -9z"/>
<path d="M2168 3270 c5 -8 16 -15 24 -15 8 0 11 7 6 15 -6 8 -17 15 -25 15 -8
0 -11 -7 -5 -15z"/>
<path d="M2430 3180 c0 -11 5 -15 10 -10 6 6 6 15 0 20 -5 6 -10 1 -10 -10z"/>
<path d="M3455 3170 c6 -5 15 -5 20 0 6 6 1 10 -10 10 -11 0 -15 -4 -10 -10z"/>
<path d="M4680 4785 c0 -18 12 -18 53 0 26 11 25 13 -12 14 -22 1 -41 -6 -41
-14z"/>
<path d="M4800 4776 c0 -16 8 -21 24 -15 13 5 31 9 41 9 23 1 -22 29 -46 30
-11 0 -19 -11 -19 -24z"/>
<path d="M4920 4785 c0 -8 7 -15 16 -15 9 0 12 7 7 15 -6 8 -13 15 -16 15 -4
0 -7 -7 -7 -15z"/>
<path d="M1785 4755 c0 -11 5 -15 10 -10 6 6 6 15 0 20 -5 6 -10 1 -10 -10z"/>
<path d="M4992 4760 c11 -5 24 -4 29 1 5 5 -4 8 -20 8 -17 -1 -21 -4 -9 -9z"/>
<path d="M3867 4745 c11 -5 24 -4 29 1 5 5 -4 8 -20 8 -17 -1 -21 -4 -9 -9z"/>
<path d="M5052 4745 c11 -5 24 -4 29 1 5 5 -4 8 -20 8 -17 -1 -21 -4 -9 -9z"/>
<path d="M4775 4715 c6 -5 15 -5 20 0 6 6 1 10 -10 10 -11 0 -15 -4 -10 -10z"/>
<path d="M5167 4711 c5 -9 19 -16 30 -16 11 0 24 -10 28 -22 5 -13 18 -23 28
-23 14 0 13 5 -3 15 -19 12 -17 15 8 15 24 1 25 3 7 13 -40 23 -108 35 -98 18z"/>
<path d="M1805 4700 c6 -5 15 -5 20 0 6 6 1 10 -10 10 -11 0 -15 -4 -10 -10z"/>
<path d="M3221 4700 c11 -4 19 -16 19 -27 0 -23 54 -14 70 10 5 10 -4 11 -25
5 -23 -8 -30 -6 -23 5 6 11 -3 17 -25 16 -19 -1 -26 -5 -16 -9z"/>
<path d="M3425 4685 c6 -5 15 -5 20 0 6 6 1 10 -10 10 -11 0 -15 -4 -10 -10z"/>
<path d="M5315 4657 c0 -11 10 -15 22 -11 13 5 19 3 14 -5 -5 -9 13 -15 42
-15 27 0 66 -8 85 -17 51 -25 180 -79 189 -79 29 0 -68 59 -110 67 -29 5 -49
15 -45 22 4 7 -10 12 -31 12 -22 0 -45 9 -51 19 -16 26 -115 33 -115 7z"/>
<path d="M3105 4650 c-12 -8 -16 -15 -7 -15 8 0 4 -7 -8 -15 -20 -13 -20 -15
0 -15 12 0 33 7 45 15 16 11 17 15 3 15 -11 0 -16 7 -10 15 11 19 6 19 -23 0z"/>
<path d="M5010 4653 c0 -25 27 -36 34 -14 5 14 20 15 70 2 38 -11 58 -12 49
-3 -22 22 -153 35 -153 15z"/>
<path d="M1911 4592 c8 -12 84 -5 84 7 0 3 -21 6 -46 6 -25 0 -42 -6 -38 -13z"/>
<path d="M2029 4595 c15 -4 35 -4 45 0 10 4 -2 7 -26 7 -25 0 -34 -4 -19 -7z"/>
<path d="M2735 4595 c6 -5 15 -5 20 0 6 6 1 10 -10 10 -11 0 -15 -4 -10 -10z"/>
<path d="M2141 4573 c27 -8 49 -20 49 -28 0 -8 14 -15 30 -15 17 0 30 7 30 15
0 8 -13 15 -29 15 -16 0 -33 7 -38 15 -6 8 -28 14 -50 14 -39 -2 -38 -2 8 -16z"/>
<path d="M5334 4572 c5 -7 14 -9 22 -4 20 12 17 17 -8 17 -12 0 -18 -6 -14
-13z"/>
<path d="M3320 4565 c6 -5 15 -5 20 0 6 6 1 10 -10 10 -11 0 -15 -4 -10 -10z"/>
<path d="M2280 4537 c0 -13 7 -20 15 -14 9 5 12 15 7 23 -13 21 -22 17 -22 -9z"/>
<path d="M5645 4505 c6 -5 15 -5 20 0 6 6 1 10 -10 10 -11 0 -15 -4 -10 -10z"/>
<path d="M3128 4485 c5 -8 12 -15 16 -15 4 0 4 7 -1 15 -6 8 -13 15 -17 15 -4
0 -4 -7 2 -15z"/>
<path d="M5765 4475 c6 -5 15 -5 20 0 6 6 1 10 -10 10 -11 0 -15 -4 -10 -10z"/>
<path d="M1925 4460 c5 -5 15 -5 20 0 6 6 1 10 -10 10 -11 0 -15 -4 -10 -10z"/>
<path d="M5846 4438 c10 -10 22 -15 27 -10 5 5 -4 13 -19 19 -21 8 -23 6 -8
-9z"/>
<path d="M3008 4425 c5 -8 12 -15 15 -15 4 0 7 7 7 15 0 8 -7 15 -16 15 -9 0
-12 -7 -6 -15z"/>
<path d="M1885 4400 c-12 -12 2 -35 21 -35 8 0 14 10 14 23 0 23 -18 29 -35
12z"/>
<path d="M5880 4397 c0 -7 22 -13 48 -14 35 -1 42 3 26 13 -27 17 -74 18 -74
1z"/>
<path d="M1647 4355 c11 -5 24 -4 29 1 5 5 -4 8 -20 8 -17 -1 -21 -4 -9 -9z"/>
<path d="M1305 4329 c0 -26 25 -45 35 -28 4 6 -3 20 -14 31 -17 16 -21 15 -21
-3z"/>
<path d="M1380 4305 c0 -8 7 -15 15 -15 8 0 15 7 15 15 0 8 -7 15 -15 15 -8 0
-15 -7 -15 -15z"/>
<path d="M1505 4310 c6 -5 15 -5 20 0 6 6 1 10 -10 10 -11 0 -15 -4 -10 -10z"/>
<path d="M2145 4308 c0 -18 28 -40 39 -29 4 4 -4 15 -16 26 -14 12 -23 13 -23
3z"/>
<path d="M2445 4261 c0 -8 6 -18 14 -23 19 -12 62 7 53 24 -12 17 -67 17 -67
-1z"/>
<path d="M1373 4245 c-6 -8 1 -15 15 -15 13 0 20 7 15 15 -6 8 -12 15 -15 15
-4 0 -10 -7 -15 -15z"/>
<path d="M1463 4245 c-6 -8 -3 -15 6 -15 9 0 16 7 16 15 0 8 -3 15 -7 15 -3 0
-10 -7 -15 -15z"/>
<path d="M1778 4245 c-6 -8 -3 -15 6 -15 9 0 16 7 16 15 0 8 -3 15 -7 15 -3 0
-10 -7 -15 -15z"/>
<path d="M4455 4245 c0 -8 7 -15 16 -15 9 0 12 7 7 15 -6 8 -13 15 -16 15 -4
0 -7 -7 -7 -15z"/>
<path d="M6057 4235 c11 -5 24 -4 29 1 5 5 -4 8 -20 8 -17 -1 -21 -4 -9 -9z"/>
<path d="M6188 4230 c5 -8 12 -15 16 -15 4 0 4 7 -1 15 -6 8 -13 15 -17 15 -4
0 -4 -7 2 -15z"/>
<path d="M2153 4176 c-5 -30 -6 -58 -1 -63 4 -4 8 6 8 24 0 17 7 35 15 41 19
11 20 52 2 52 -8 0 -18 -24 -24 -54z"/>
<path d="M4050 4224 c0 -14 45 -21 53 -8 5 8 -5 14 -22 14 -17 0 -31 -3 -31
-6z"/>
<path d="M4272 4220 c11 -5 24 -4 29 1 5 5 -4 8 -20 8 -17 -1 -21 -4 -9 -9z"/>
<path d="M1722 4205 c11 -5 24 -4 29 1 5 5 -4 8 -20 8 -17 -1 -21 -4 -9 -9z"/>
<path d="M3950 4179 c10 -17 19 -34 21 -37 2 -4 14 3 27 13 20 17 28 15 54
-11 l31 -30 -47 -21 c-43 -19 -61 -42 -35 -44 6 -1 27 -4 46 -8 21 -4 31 0 26
9 -6 8 -1 16 10 16 11 1 30 4 42 7 12 2 46 10 74 16 l51 11 -29 -38 c-25 -34
-30 -35 -46 -14 -20 28 -27 24 -42 -26 -10 -33 -8 -35 28 -29 21 4 39 2 39 -6
0 -8 19 -12 41 -11 107 9 148 -24 78 -62 -57 -30 -10 -56 88 -49 122 10 144 8
150 -9 12 -36 64 -17 55 20 -11 41 7 58 39 38 15 -9 16 -14 3 -14 -11 0 -19
-7 -19 -16 0 -17 119 -16 143 2 20 15 73 -25 60 -45 -5 -9 -2 -16 8 -16 9 0
13 -10 9 -22 -5 -11 0 -24 10 -28 12 -6 11 -12 -5 -24 -18 -12 -14 -16 19 -16
47 0 54 25 15 54 -17 13 -19 20 -7 21 14 0 12 10 -5 37 -14 20 -20 44 -15 52
6 9 -6 23 -25 30 l-34 14 34 1 c19 1 38 -9 43 -21 4 -13 15 -18 24 -13 10 6
13 1 7 -15 -5 -13 0 -34 11 -45 12 -12 17 -26 12 -31 -8 -8 46 -3 71 7 4 1 14
1 23 0 28 -6 -14 26 -45 33 -17 4 -5 8 27 9 31 1 53 8 48 16 -31 50 73 124
128 90 22 -13 3 -23 -52 -26 -24 -2 -48 -7 -52 -11 -12 -12 30 -35 50 -28 9 4
29 -3 45 -14 26 -20 24 -21 -27 -17 -30 3 -59 -2 -63 -9 -5 -8 9 -14 31 -14
33 0 39 -6 33 -30 -7 -26 -1 -30 48 -30 55 0 80 73 26 76 -10 0 -1 7 19 15 25
11 39 10 47 -3 6 -9 22 -13 35 -8 12 5 27 2 32 -6 14 -22 37 -17 37 9 0 12
-13 22 -30 22 -24 0 -30 10 -30 49 0 33 -5 42 -13 28 -9 -13 -25 -16 -47 -9
-22 6 -28 14 -17 21 17 10 -52 54 -76 49 -5 -1 -38 7 -72 19 -34 12 -57 16
-52 8 5 -8 2 -15 -7 -15 -9 0 -16 10 -16 21 0 14 -30 28 -86 40 -48 9 -91 25
-97 35 -6 9 -16 17 -23 17 -6 0 -25 8 -41 17 -46 25 -132 31 -139 9 -4 -11 4
-19 17 -19 39 0 27 -25 -25 -50 -49 -24 -50 -23 26 -47 14 -4 19 1 13 15 -12
32 36 27 57 -6 12 -18 29 -25 55 -20 23 5 44 -1 54 -14 9 -13 28 -27 43 -32
42 -16 30 -37 -19 -35 -26 1 -43 8 -39 18 3 9 -3 16 -15 16 -12 0 -21 -9 -21
-20 0 -32 -47 -23 -56 11 -6 23 -17 29 -38 24 -45 -12 -146 33 -146 65 0 30
-41 69 -56 54 -6 -6 -1 -18 11 -26 25 -17 -13 -12 -64 9 -20 9 -26 4 -26 -21
0 -27 -4 -29 -29 -13 -16 10 -25 24 -21 32 5 7 0 19 -12 26 -32 21 -49 16 -29
-7 20 -24 -7 -39 -70 -39 -32 0 -35 4 -19 23 16 18 13 22 -13 22 -21 0 -28 -7
-22 -22 4 -13 1 -23 -8 -23 -10 0 -17 9 -17 20 0 11 -29 29 -64 39 -35 11 -74
23 -86 28 -65 23 -104 15 -85 -18z m183 -54 c5 -8 2 -15 -7 -15 -9 0 -16 7
-16 15 0 8 3 15 7 15 3 0 10 -7 16 -15z m382 -38 c0 -20 -32 -67 -46 -67 -21
0 -17 56 5 65 26 11 41 11 41 2z m455 -44 c5 -13 3 -23 -5 -23 -8 0 -19 -2
-25 -4 -5 -2 -11 8 -13 23 -5 32 31 35 43 4z m55 -24 c0 -8 -7 -14 -15 -14 -8
0 -15 11 -15 23 0 13 7 20 15 15 8 -6 15 -16 15 -24z m-698 1 c6 -8 0 -11 -14
-6 -26 10 -30 21 -9 21 8 0 18 -7 23 -15z m790 0 c16 0 26 -6 22 -13 -10 -17
-81 -3 -94 17 -6 10 0 12 16 6 15 -5 40 -10 56 -10z m-847 -10 c-5 -5 -14 -5
-20 0 -5 6 -1 10 10 10 11 0 16 -4 10 -10z m140 3 c0 -15 -29 -22 -37 -8 -6 8
1 15 14 15 12 0 23 -3 23 -7z m289 -18 c-11 -4 -27 -4 -38 0 -10 4 -2 8 19 8
21 0 29 -4 19 -8z m334 -27 c28 -21 27 -22 -18 -23 -28 0 -50 9 -55 23 -12 29
35 29 73 0z m-628 -33 c-5 -5 -14 -5 -20 0 -5 6 -1 10 10 10 11 0 16 -4 10
-10z m320 -20 c0 -8 -10 -15 -22 -15 -13 0 -23 7 -23 15 0 8 10 15 23 15 12 0
22 -7 22 -15z"/>
<path d="M6285 4187 c0 -9 -11 -12 -26 -6 -15 5 -5 -9 22 -32 27 -23 46 -46
43 -52 -4 -6 6 -11 22 -11 16 0 29 6 29 12 0 7 -9 12 -21 12 -29 0 -61 40 -38
48 11 4 9 12 -7 26 -15 12 -24 14 -24 3z"/>
<path d="M1571 4175 c11 -4 27 -4 38 0 10 4 2 8 -19 8 -21 0 -29 -4 -19 -8z"/>
<path d="M3817 4169 c-5 -8 -22 -11 -38 -6 -34 11 -37 -2 -7 -32 13 -13 25
-16 30 -6 6 8 17 15 25 15 8 0 10 -7 5 -16 -8 -12 -2 -12 21 0 18 10 27 25 22
39 -10 25 -44 29 -58 6z"/>
<path d="M1451 4137 c10 -12 15 -26 10 -31 -5 -5 5 -5 23 -1 17 5 31 16 31 24
0 9 -4 12 -9 7 -6 -6 -24 -2 -42 7 -27 15 -29 14 -13 -6z"/>
<path d="M2527 4141 c4 -7 1 -17 -7 -21 -9 -4 -8 -6 2 -4 24 4 36 39 13 39 -9
0 -13 -6 -8 -14z"/>
<path d="M3702 4130 c11 -5 24 -4 29 1 5 5 -4 8 -20 8 -17 -1 -21 -4 -9 -9z"/>
<path d="M6210 4125 c0 -8 7 -15 16 -15 9 0 12 7 7 15 -6 8 -13 15 -16 15 -4
0 -7 -7 -7 -15z"/>
<path d="M1043 4110 l-30 -13 30 -1 c16 0 40 6 52 14 30 19 -8 19 -52 0z"/>
<path d="M1370 4115 c6 -5 15 -5 20 0 6 6 1 10 -10 10 -11 0 -15 -4 -10 -10z"/>
<path d="M3638 4110 c-6 -8 1 -15 14 -15 12 0 23 7 23 15 0 8 -6 15 -14 15 -8
0 -18 -7 -23 -15z"/>
<path d="M1419 4086 c-5 -14 -6 -29 -2 -33 4 -4 12 4 17 18 5 14 6 29 2 33 -4
4 -12 -4 -17 -18z"/>
<path d="M1586 4100 c11 -4 27 -4 38 0 10 4 2 8 -19 8 -21 0 -29 -4 -19 -8z"/>
<path d="M5525 4085 c6 -5 15 -5 20 0 6 6 1 10 -10 10 -11 0 -15 -4 -10 -10z"/>
<path d="M1337 4031 c-24 -24 -21 -57 4 -47 26 10 42 47 26 57 -7 4 -20 0 -30
-10z"/>
<path d="M6338 4005 c14 -17 30 -30 34 -30 4 0 -5 13 -19 30 -15 17 -31 30
-35 30 -4 0 5 -13 20 -30z"/>
<path d="M5445 3993 c0 -12 55 -63 68 -63 4 0 -1 13 -11 30 -20 31 -57 52 -57
33z"/>
<path d="M1726 3976 c-28 -5 -54 -18 -58 -29 -4 -14 0 -17 12 -10 10 6 66 11
124 11 58 -1 99 4 92 11 -20 18 -110 27 -170 17z"/>
<path d="M4155 3960 c0 -11 5 -15 10 -10 6 6 6 15 0 20 -5 5 -10 1 -10 -10z"/>
<path d="M5390 3950 c6 -5 15 -5 20 0 6 6 1 10 -10 10 -11 0 -15 -4 -10 -10z"/>
<path d="M1125 3930 c0 -8 7 -15 16 -15 9 0 12 7 7 15 -6 8 -13 15 -16 15 -4
0 -7 -7 -7 -15z"/>
<path d="M5645 3935 c6 -5 15 -5 20 0 6 6 1 10 -10 10 -11 0 -15 -4 -10 -10z"/>
<path d="M6442 3891 c13 -14 29 -20 35 -14 5 5 0 16 -12 24 -36 22 -49 16 -23
-10z"/>
<path d="M964 3872 c-27 -14 -48 -30 -49 -36 0 -20 22 -12 68 26 51 42 49 43
-19 10z"/>
<path d="M5460 3885 c0 -8 11 -15 23 -15 13 0 20 7 15 15 -6 8 -16 15 -24 15
-8 0 -14 -7 -14 -15z"/>
<path d="M5520 3891 c0 -4 10 -18 23 -31 32 -32 28 -80 -7 -80 -16 0 -33 -7
-38 -15 -10 -15 -1 -18 58 -21 30 -2 54 -39 25 -39 -9 0 -16 -8 -16 -17 0 -11
11 -8 27 7 30 27 108 34 108 10 0 -8 7 -15 16 -15 9 0 12 7 7 15 -6 8 1 15 15
15 13 0 20 -7 15 -15 -6 -8 0 -11 14 -6 15 6 23 1 23 -16 0 -18 8 -23 23 -17
13 5 20 3 15 -5 -4 -7 19 -15 52 -19 97 -9 143 34 68 63 -21 8 -38 23 -38 33
0 14 -5 13 -15 -3 -12 -18 -15 -16 -15 10 0 31 -18 52 -52 61 -9 2 -42 9 -75
17 -81 18 -114 33 -106 47 4 6 -13 16 -39 21 -58 11 -88 12 -88 0z m161 -90
c-5 -5 -18 -6 -29 -1 -12 5 -8 8 9 9 16 0 25 -3 20 -8z m161 -19 c-3 -3 4 -25
16 -48 29 -55 29 -56 -17 -47 -65 12 -85 109 -21 104 16 -1 26 -5 22 -9z m-87
-22 c5 -5 -5 -10 -23 -10 -17 0 -32 6 -32 14 0 15 38 13 55 -4z"/>
<path d="M6570 3885 c0 -8 7 -15 16 -15 9 0 12 7 7 15 -6 8 -13 15 -16 15 -4
0 -7 -7 -7 -15z"/>
<path d="M5415 3870 c0 -11 5 -15 10 -10 6 6 6 15 0 20 -5 5 -10 1 -10 -10z"/>
<path d="M2950 3848 c4 -13 15 -23 23 -23 9 0 8 10 -3 23 -10 12 -21 22 -24
22 -3 0 -1 -10 4 -22z"/>
<path d="M4046 3853 c-51 -19 -53 -43 -3 -43 22 0 37 9 37 21 0 16 12 18 56 8
31 -7 59 -9 62 -6 4 4 -3 7 -14 7 -18 0 -18 3 1 15 31 20 -83 18 -139 -2z"/>
<path d="M5283 3837 c4 -10 14 -20 24 -24 11 -3 15 4 9 18 -11 28 -42 33 -33
6z"/>
<path d="M840 3829 c0 -11 -13 -19 -30 -19 -16 0 -30 -6 -30 -14 0 -8 20 -13
45 -13 48 2 52 7 30 42 -10 15 -15 16 -15 4z"/>
<path d="M3896 3820 c-26 -65 -6 -109 41 -91 21 8 21 12 2 27 -12 9 -24 33
-27 54 -4 32 -6 34 -16 10z"/>
<path d="M5310 3796 c-34 -22 -5 -38 36 -20 24 12 40 12 51 1 18 -18 53 -2 40
19 -11 18 -98 18 -127 0z"/>
<path d="M3975 3780 c0 -8 10 -15 23 -15 12 0 22 7 22 15 0 8 -10 15 -22 15
-13 0 -23 -7 -23 -15z"/>
<path d="M1448 3754 c-8 -21 -6 -23 9 -8 10 10 15 22 10 27 -5 5 -13 -4 -19
-19z"/>
<path d="M2630 3770 c6 -5 15 -5 20 0 6 6 1 10 -10 10 -11 0 -15 -4 -10 -10z"/>
<path d="M4781 3755 c-14 -4 -26 -13 -26 -21 0 -21 29 -17 55 9 22 22 18 24
-29 12z"/>
<path d="M1683 3714 c46 -44 57 -48 57 -18 0 11 -12 25 -26 30 -15 5 -37 13
-49 18 -12 5 -4 -8 18 -30z"/>
<path d="M2270 3728 c7 -21 44 -20 51 2 3 11 -7 17 -25 16 -17 -1 -29 -9 -26
-18z"/>
<path d="M4950 3735 c0 -8 10 -10 23 -5 12 4 22 11 22 14 0 3 -10 6 -22 6 -13
0 -23 -7 -23 -15z"/>
<path d="M5040 3734 c0 -9 7 -12 15 -6 8 5 15 12 15 15 0 4 -7 7 -15 7 -8 0
-15 -7 -15 -16z"/>
<path d="M1320 3704 c0 -9 7 -12 15 -6 8 5 15 12 15 15 0 4 -7 7 -15 7 -8 0
-15 -7 -15 -16z"/>
<path d="M2198 3705 c5 -9 15 -12 23 -7 21 13 17 22 -9 22 -13 0 -20 -7 -14
-15z"/>
<path d="M5315 3710 c6 -5 15 -5 20 0 6 6 1 10 -10 10 -11 0 -15 -4 -10 -10z"/>
<path d="M5525 3710 c6 -5 15 -5 20 0 6 6 1 10 -10 10 -11 0 -15 -4 -10 -10z"/>
<path d="M2057 3692 c-14 -9 -3 -16 36 -24 59 -11 76 -5 60 21 -12 19 -67 21
-96 3z"/>
<path d="M5620 3683 c-5 -13 -3 -23 5 -23 8 0 15 10 15 23 0 12 -3 22 -6 22
-3 0 -10 -10 -14 -22z"/>
<path d="M6635 3685 c0 -11 9 -20 20 -20 15 0 15 5 3 20 -9 11 -18 20 -20 20
-2 0 -3 -9 -3 -20z"/>
<path d="M6825 3675 c0 -11 5 -15 10 -10 6 6 6 15 0 20 -5 6 -10 1 -10 -10z"/>
<path d="M1292 3609 c-20 -81 -21 -99 -4 -99 12 0 35 151 25 162 -2 2 -12 -26
-21 -63z"/>
<path d="M4955 3665 c6 -5 15 -5 20 0 6 6 1 10 -10 10 -11 0 -15 -4 -10 -10z"/>
<path d="M5690 3665 c6 -5 15 -5 20 0 6 6 1 10 -10 10 -11 0 -15 -4 -10 -10z"/>
<path d="M2195 3635 c6 -5 15 -5 20 0 6 6 1 10 -10 10 -11 0 -15 -4 -10 -10z"/>
<path d="M5603 3630 c5 -8 19 -15 31 -15 13 0 19 7 14 15 -6 8 -20 15 -32 15
-13 0 -19 -7 -13 -15z"/>
<path d="M2255 3607 c-13 -33 0 -40 32 -17 25 19 25 21 2 30 -16 6 -28 1 -34
-13z"/>
<path d="M4805 3620 c6 -5 15 -5 20 0 6 6 1 10 -10 10 -11 0 -15 -4 -10 -10z"/>
<path d="M5760 3610 c0 -11 9 -20 20 -20 11 0 20 9 20 20 0 11 -9 20 -20 20
-11 0 -20 -9 -20 -20z"/>
<path d="M6000 3600 c39 -34 50 -32 36 5 -5 14 -23 25 -40 25 -29 0 -29 -1 4
-30z"/>
<path d="M6106 3606 c1 -17 4 -21 9 -9 5 11 4 24 -1 29 -5 5 -8 -4 -8 -20z"/>
<path d="M2175 3577 c0 -24 40 -47 55 -32 11 11 -23 55 -42 55 -7 0 -13 -10
-13 -23z"/>
<path d="M6848 3585 c5 -8 12 -15 16 -15 4 0 4 7 -1 15 -6 8 -13 15 -17 15 -4
0 -4 -7 2 -15z"/>
<path d="M5258 3570 c-6 -8 -3 -15 6 -15 9 0 16 7 16 15 0 8 -3 15 -7 15 -3 0
-10 -7 -15 -15z"/>
<path d="M5330 3575 c6 -5 15 -5 20 0 6 6 1 10 -10 10 -11 0 -15 -4 -10 -10z"/>
<path d="M6935 3575 c6 -5 15 -5 20 0 6 6 1 10 -10 10 -11 0 -15 -4 -10 -10z"/>
<path d="M5525 3560 c6 -5 15 -5 20 0 6 6 1 10 -10 10 -11 0 -15 -4 -10 -10z"/>
<path d="M6106 3557 c-1 -11 -10 -17 -23 -12 -12 5 -27 1 -32 -8 -7 -10 -4
-12 7 -6 9 6 17 4 17 -5 0 -9 9 -16 21 -16 11 0 29 -10 39 -22 10 -13 26 -23
36 -23 12 0 12 4 0 11 -9 7 -27 32 -41 57 -13 24 -24 35 -24 24z"/>
<path d="M2130 3540 c0 -8 7 -15 15 -15 8 0 15 7 15 15 0 8 -7 15 -15 15 -8 0
-15 -7 -15 -15z"/>
<path d="M5255 3515 c6 -5 15 -5 20 0 6 6 1 10 -10 10 -11 0 -15 -4 -10 -10z"/>
<path d="M5375 3515 c6 -5 15 -5 20 0 6 6 1 10 -10 10 -11 0 -15 -4 -10 -10z"/>
<path d="M5970 3510 c0 -8 7 -15 15 -15 8 0 15 7 15 15 0 8 -7 15 -15 15 -8 0
-15 -7 -15 -15z"/>
<path d="M1980 3495 c0 -8 10 -15 23 -15 12 0 22 7 22 15 0 8 -10 15 -22 15
-13 0 -23 -7 -23 -15z"/>
<path d="M5615 3500 c6 -5 15 -5 20 0 6 6 1 10 -10 10 -11 0 -15 -4 -10 -10z"/>
<path d="M6030 3480 c-14 -9 -15 -15 -5 -15 10 0 22 7 28 15 11 19 6 19 -23 0z"/>
<path d="M6664 3477 c-35 -17 -49 -65 -15 -53 10 4 17 15 15 24 -5 21 11 21
41 2 19 -12 19 -15 1 -15 -11 0 -17 -4 -12 -9 18 -18 43 11 27 30 -9 11 -11
24 -6 29 15 15 -13 10 -51 -8z"/>
<path d="M6076 3476 c4 -3 18 -14 33 -25 23 -18 25 -17 17 4 -5 14 -20 25 -33
25 -12 0 -20 -2 -17 -4z"/>
<path d="M5970 3420 c-18 -11 -17 -15 5 -24 32 -12 42 -4 28 20 -7 11 -19 13
-33 4z"/>
<path d="M1520 3395 c6 -5 15 -5 20 0 6 6 1 10 -10 10 -11 0 -15 -4 -10 -10z"/>
<path d="M6700 3394 c-12 -20 14 -40 35 -26 9 5 15 -8 15 -30 0 -21 7 -38 17
-38 9 0 12 10 7 23 -5 15 -3 20 8 13 10 -6 10 2 -2 23 -9 19 -26 30 -38 26
-11 -5 -23 -1 -26 9 -4 13 -8 13 -16 0z"/>
<path d="M4163 3375 c5 -8 15 -15 23 -15 8 0 14 7 14 15 0 8 -11 15 -23 15
-13 0 -20 -7 -14 -15z"/>
<path d="M4320 3336 c0 -17 -8 -38 -18 -48 -14 -14 -11 -18 12 -18 22 0 30 10
29 36 -1 44 -23 72 -23 30z"/>
<path d="M4144 3304 c-5 -15 -17 -31 -25 -38 -11 -7 -11 -11 1 -11 21 0 65 41
65 61 0 24 -31 15 -41 -12z"/>
<path d="M6780 3293 c-28 -30 -30 -37 -10 -29 20 7 29 1 35 -22 5 -18 15 -32
23 -32 7 0 9 -8 3 -17 -6 -11 -4 -14 6 -7 9 5 13 19 9 30 -5 12 0 26 11 32 12
8 15 4 9 -13 -6 -14 -3 -25 6 -25 12 0 11 -7 -1 -21 -13 -16 -13 -23 2 -28 16
-5 16 -11 1 -29 -16 -19 -15 -26 2 -41 19 -16 22 -4 20 80 -2 81 -7 99 -27 99
-13 0 -31 14 -38 31 -14 30 -15 30 -51 -8z"/>
<path d="M6366 3283 c-7 -11 -4 -14 7 -7 9 6 17 14 17 17 0 13 -13 7 -24 -10z"/>
<path d="M3762 3275 c11 -5 24 -4 29 1 5 5 -4 8 -20 8 -17 -1 -21 -4 -9 -9z"/>
<path d="M6940 3260 c-5 -5 -10 -21 -10 -34 1 -19 4 -19 17 4 16 28 11 48 -7
30z"/>
<path d="M6770 3230 c6 -5 15 -5 20 0 6 6 1 10 -10 10 -11 0 -15 -4 -10 -10z"/>
<path d="M5640 3210 c0 -8 10 -15 23 -15 12 0 22 3 22 6 0 3 -10 10 -22 14
-13 5 -23 3 -23 -5z"/>
<path d="M5690 3155 c6 -5 15 -5 20 0 6 6 1 10 -10 10 -11 0 -15 -4 -10 -10z"/>
<path d="M4028 3135 c5 -8 12 -15 15 -15 4 0 7 7 7 15 0 8 -7 15 -16 15 -9 0
-12 -7 -6 -15z"/>
<path d="M4167 3140 c11 -5 24 -4 29 1 5 5 -4 8 -20 8 -17 -1 -21 -4 -9 -9z"/>
<path d="M6000 3134 c0 -9 7 -12 15 -6 8 5 15 12 15 15 0 4 -7 7 -15 7 -8 0
-15 -7 -15 -16z"/>
<path d="M6945 3124 c0 -18 12 -26 36 -26 30 0 34 4 22 26 -8 14 -24 26 -36
26 -12 0 -22 -12 -22 -26z"/>
<path d="M5618 3120 c-6 -8 -3 -15 6 -15 9 0 16 7 16 15 0 8 -3 15 -7 15 -3 0
-10 -7 -15 -15z"/>
<path d="M5 3074 c5 -20 10 -42 10 -48 0 -6 6 -11 13 -11 17 0 3 73 -17 85
-10 6 -12 -3 -6 -26z"/>
<path d="M4080 3075 c0 -11 5 -15 10 -10 5 6 5 15 0 20 -5 6 -10 1 -10 -10z"/>
<path d="M6900 3045 c0 -11 5 -15 10 -10 6 6 6 15 0 20 -5 6 -10 1 -10 -10z"/>
<path d="M5457 3035 c11 -5 24 -4 29 1 5 5 -4 8 -20 8 -17 -1 -21 -4 -9 -9z"/>
<path d="M6518 3030 c5 -8 12 -15 15 -15 4 0 7 7 7 15 0 8 -7 15 -16 15 -9 0
-12 -7 -6 -15z"/>
<path d="M6555 3039 c0 -3 12 -15 26 -26 24 -19 25 -18 6 6 -20 25 -32 33 -32
20z"/>
<path d="M5525 3020 c6 -5 15 -5 20 0 6 6 1 10 -10 10 -11 0 -15 -4 -10 -10z"/>
<path d="M6960 3017 c0 -8 7 -19 15 -24 8 -6 15 -3 15 5 0 8 -7 19 -15 25 -8
5 -15 2 -15 -6z"/>
<path d="M3728 2984 c-60 -38 -17 -38 97 1 l83 28 -68 0 c-41 0 -85 -12 -112
-29z"/>
<path d="M38 2984 c3 -5 8 -25 12 -45 12 -67 52 -147 54 -107 0 19 -7 49 -16
67 -14 27 -11 36 19 63 l37 31 -56 0 c-31 0 -53 -4 -50 -9z"/>
<path d="M3994 2983 c-9 -9 -33 -19 -52 -21 -19 -2 -51 -12 -72 -21 -32 -14
-27 -16 34 -9 77 8 131 30 131 54 0 19 -20 18 -41 -3z"/>
<path d="M7050 2990 c1 -28 30 -59 30 -32 0 14 -7 29 -15 35 -8 5 -15 3 -15
-3z"/>
<path d="M5625 2925 c0 -8 14 -15 30 -15 17 0 30 7 30 15 0 8 -13 15 -30 15
-16 0 -30 -7 -30 -15z"/>
<path d="M494 2875 c-13 -18 -31 -59 -40 -92 -52 -182 -60 -215 -62 -260 -2
-31 3 -47 13 -41 9 6 14 -14 14 -55 -2 -54 -4 -59 -14 -27 -11 36 -12 35 -14
-10 0 -27 6 -53 15 -58 28 -17 51 20 53 87 2 35 17 141 35 236 18 95 30 190
28 212 l-4 40 -24 -32z"/>
<path d="M1768 2906 c-14 -28 -6 -69 12 -54 11 9 20 11 20 4 1 -19 30 28 30
47 0 8 -7 4 -15 -8 -10 -15 -15 -16 -15 -4 0 16 -26 28 -32 15z"/>
<path d="M5832 2847 c8 -8 24 -12 35 -9 11 4 4 11 -16 16 -25 7 -31 5 -19 -7z"/>
<path d="M242 2840 c-1 -10 -6 -30 -12 -45 -7 -21 -5 -24 9 -10 10 9 16 29 12
45 -4 15 -8 20 -9 10z"/>
<path d="M2835 2805 c0 -8 7 -15 16 -15 9 0 12 7 7 15 -6 8 -13 15 -16 15 -4
0 -7 -7 -7 -15z"/>
<path d="M134 2780 c9 -18 16 -48 16 -66 0 -26 4 -29 21 -15 17 14 23 12 27
-9 4 -20 8 -16 14 13 5 25 3 37 -6 32 -8 -5 -31 11 -51 34 -27 32 -32 35 -21
11z"/>
<path d="M1728 2768 c-10 -21 -11 -38 -4 -38 15 0 38 58 27 69 -3 3 -14 -11
-23 -31z"/>
<path d="M4373 2775 c5 -8 12 -15 15 -15 4 0 7 7 7 15 0 8 -7 15 -16 15 -9 0
-12 -7 -6 -15z"/>
<path d="M6218 2775 c5 -8 12 -15 15 -15 4 0 7 7 7 15 0 8 -7 15 -16 15 -9 0
-12 -7 -6 -15z"/>
<path d="M3211 2730 c0 -12 6 -33 14 -45 18 -27 18 -4 0 38 -9 19 -13 22 -14
7z"/>
<path d="M7185 2685 c0 -11 5 -15 10 -10 6 6 6 15 0 20 -5 6 -10 1 -10 -10z"/>
<path d="M147 2618 c-3 -29 -2 -53 4 -53 15 0 45 76 36 91 -18 28 -34 13 -40
-38z"/>
<path d="M555 2628 c0 -9 13 -20 29 -25 15 -5 32 -19 37 -32 8 -21 39 -17 39
6 -1 37 -105 87 -105 51z"/>
<path d="M1658 2625 c-6 -8 1 -15 15 -15 13 0 20 7 15 15 -6 8 -12 15 -15 15
-4 0 -10 -7 -15 -15z"/>
<path d="M720 2610 c0 -8 7 -15 15 -15 8 0 15 7 15 15 0 8 -7 15 -15 15 -8 0
-15 -7 -15 -15z"/>
<path d="M3135 2595 c0 -11 5 -15 10 -10 6 6 6 15 0 20 -5 6 -10 1 -10 -10z"/>
<path d="M1580 2555 c6 -5 15 -5 20 0 6 6 1 10 -10 10 -11 0 -15 -4 -10 -10z"/>
<path d="M105 2528 c0 -13 -8 -23 -18 -23 -9 0 -13 -4 -9 -8 12 -12 54 8 63
32 5 12 -1 21 -14 21 -12 0 -22 -10 -22 -22z"/>
<path d="M3241 2526 c1 -17 4 -21 9 -9 5 11 4 24 -1 29 -5 5 -8 -4 -8 -20z"/>
<path d="M3995 2488 c-7 -50 -13 -58 -26 -41 -38 49 -67 16 -130 -148 -16 -41
-119 -51 -119 -11 0 12 -7 22 -15 22 -9 0 -22 15 -30 34 -7 18 -14 24 -14 13
-1 -17 -5 -17 -24 -2 -19 16 -30 13 -67 -23 -25 -23 -46 -39 -49 -36 -2 4 -11
20 -20 36 -24 44 -46 44 -63 -3 -22 -60 -152 -201 -181 -196 -33 5 -260 -127
-283 -166 -30 -50 -105 -54 -190 -10 -57 29 -97 38 -173 38 -54 0 -175 7 -270
15 l-171 14 -62 -63 c-60 -60 -92 -80 -229 -140 -31 -13 -69 -31 -85 -39 -21
-11 -44 -3 -105 37 -42 29 -109 64 -148 79 -71 26 -88 44 -52 56 10 4 6 5 -9
2 -35 -5 -70 8 -70 26 0 7 19 14 41 15 26 1 31 4 15 8 -14 4 -26 14 -26 23 0
9 -14 -2 -31 -23 -30 -38 -33 -39 -74 -17 -24 12 -54 22 -67 22 -13 0 -84 23
-158 52 -134 51 -264 82 -366 86 -30 1 -54 8 -54 16 0 8 -14 34 -31 58 -18 24
-29 53 -25 63 4 10 -2 32 -13 47 -12 16 -21 21 -21 13 0 -22 -82 -33 -112 -16
-49 27 -70 -15 -38 -75 37 -69 22 -97 -78 -148 -78 -40 -372 -317 -372 -351 0
-15 5 -15 22 0 18 15 28 15 46 0 18 -15 22 -14 22 6 0 13 -8 24 -17 24 -23 0
64 89 86 90 10 0 27 11 38 25 17 22 17 24 -1 13 -14 -8 -17 -7 -10 4 5 9 20
13 32 8 12 -5 58 9 102 30 83 41 259 67 331 49 35 -9 39 -17 39 -81 0 -51 -4
-64 -15 -48 -12 18 -15 15 -15 -13 0 -25 -7 -33 -22 -27 -14 6 -19 1 -13 -14
5 -12 12 -19 17 -14 12 12 47 -41 48 -72 0 -39 -35 -22 -45 21 -6 26 -21 38
-49 41 -23 3 -41 11 -41 19 0 7 10 9 23 4 13 -5 22 0 22 14 0 22 -90 56 -151
56 -34 0 -34 -1 -6 -23 30 -23 4 -22 -83 2 -12 3 -6 -7 15 -24 21 -16 49 -41
64 -55 14 -14 30 -21 35 -16 6 6 29 0 52 -12 23 -12 53 -22 67 -22 42 0 97
-75 97 -133 0 -32 -30 -33 -289 -10 -47 4 -71 1 -71 -11 0 -9 -9 -5 -20 10
-23 31 -123 37 -174 9 -23 -12 -31 -12 -31 1 0 12 -8 11 -25 -3 -19 -16 -26
-16 -31 -2 -7 21 -34 26 -34 6 0 -7 30 -25 68 -39 37 -14 67 -35 67 -47 0 -13
16 -21 41 -22 133 -3 228 -1 274 6 29 4 88 12 132 16 44 5 86 12 94 17 8 5 14
0 14 -11 0 -15 3 -15 14 1 17 28 67 9 56 -20 -5 -12 -1 -27 8 -32 10 -7 3 -20
-20 -38 l-35 -27 33 -1 c19 0 34 7 34 15 0 8 12 15 26 15 24 1 23 3 -3 25 -18
14 -24 26 -14 30 29 11 7 77 -23 70 -35 -10 -47 24 -32 90 7 30 7 56 1 58 -28
11 -32 72 -5 74 53 3 103 -5 117 -18 18 -18 38 -18 38 1 0 8 -37 25 -82 38
-95 28 -91 23 -105 117 l-10 73 85 -8 c47 -5 94 -16 105 -25 11 -9 29 -15 40
-13 85 17 299 -86 233 -112 -11 -5 -9 -8 7 -9 14 0 29 6 34 14 28 44 113 -14
113 -77 0 -21 -5 -23 -37 -8 -21 10 -38 25 -38 35 0 10 -13 14 -31 9 -18 -5
-27 -16 -23 -28 5 -14 -3 -21 -21 -21 -17 0 -30 -6 -30 -13 0 -38 -79 -48
-144 -16 l-65 31 -45 -50 c-25 -27 -45 -55 -46 -61 0 -17 27 -13 38 5 12 19
125 7 147 -15 8 -8 -9 -20 -45 -30 -87 -23 -170 -113 -136 -147 16 -16 26 -19
26 -7 0 34 23 18 25 -18 2 -42 -40 -59 -112 -45 -26 5 -49 2 -55 -7 -6 -12 12
-17 55 -17 51 -1 59 -4 38 -16 -14 -9 -32 -12 -39 -7 -8 4 -17 -6 -21 -22 -7
-25 -1 -30 39 -30 80 1 115 16 115 50 0 37 81 112 135 125 21 5 46 16 57 24
13 11 25 10 37 -2 26 -26 36 -21 35 17 -1 21 6 32 19 29 34 -7 77 13 77 36 0
12 19 26 44 30 26 6 46 21 51 39 4 16 22 33 39 37 17 5 31 14 31 22 0 7 7 13
16 13 9 0 11 -7 6 -16 -9 -14 18 -11 99 10 30 8 157 -104 143 -127 -7 -11 1
-17 21 -17 17 0 68 -24 114 -52 45 -29 94 -53 109 -53 15 0 31 -4 37 -10 5 -5
37 -12 71 -15 34 -3 74 -12 90 -20 23 -13 27 -11 20 7 -11 29 6 29 74 0 30
-12 63 -20 73 -18 11 2 20 -10 20 -27 0 -16 6 -39 13 -50 7 -11 6 -26 -3 -35
-18 -18 -55 40 -40 63 5 8 -8 15 -29 15 -20 0 -41 7 -47 15 -11 19 -37 20 -37
2 0 -8 13 -17 29 -21 16 -4 46 -35 67 -69 28 -44 50 -62 74 -62 33 0 85 -41
85 -66 0 -6 10 -21 23 -34 14 -14 19 -36 13 -60 -7 -28 0 -47 31 -80 23 -23
37 -49 32 -57 -12 -21 -100 -35 -120 -20 -9 7 -43 18 -76 24 -54 10 -57 13
-33 30 28 21 9 48 -22 30 -17 -11 -133 21 -133 37 0 5 -12 10 -26 10 -25 1
-250 36 -416 66 -42 7 -104 18 -139 23 -41 6 -64 17 -64 31 0 11 -7 21 -15 21
-8 0 -15 -10 -15 -21 0 -12 -22 -37 -49 -56 -27 -19 -53 -40 -58 -48 -5 -7
-23 -9 -40 -3 -17 5 -35 2 -40 -6 -14 -22 -62 -20 -111 6 -23 11 -68 25 -101
29 -32 4 -102 15 -156 23 -129 20 -268 6 -227 -23 45 -32 242 -81 324 -81 51
0 68 -5 54 -14 -15 -9 -1 -16 49 -24 91 -13 244 -1 272 23 25 20 53 8 53 -23
0 -12 7 -22 15 -22 8 0 15 -21 15 -46 0 -25 6 -42 13 -38 7 5 12 34 10 66 -4
59 37 77 94 42 10 -6 18 -4 18 4 0 8 22 14 49 14 27 -1 40 -5 30 -8 -25 -8
-24 -34 0 -34 11 0 60 -20 109 -45 49 -24 100 -44 112 -45 12 0 43 -14 68 -30
24 -16 65 -30 90 -31 24 0 71 -10 104 -22 54 -19 62 -18 88 5 28 25 29 24 12
-8 -15 -28 -14 -32 6 -24 15 5 22 1 19 -12 -3 -12 7 -20 24 -18 16 1 38 -7 50
-19 12 -11 36 -21 54 -21 18 0 62 -21 99 -45 69 -47 91 -55 91 -30 0 8 -10 15
-22 15 -27 0 -113 86 -113 113 0 11 -8 23 -19 26 -10 4 0 16 24 27 32 15 48
16 67 3 14 -10 55 -33 92 -52 42 -22 57 -36 41 -39 -14 -3 -25 -11 -25 -18 0
-7 15 -9 34 -6 18 4 25 2 15 -2 -50 -24 86 -103 204 -119 65 -9 78 -16 73 -37
-14 -53 201 -80 249 -32 11 11 -5 16 -51 16 -36 0 -77 8 -89 16 -17 13 -13 14
19 7 22 -5 41 -2 41 6 0 7 -22 18 -49 24 -56 12 -143 49 -176 75 -12 10 -42
23 -65 28 -31 7 -40 17 -34 34 6 14 -1 32 -16 42 -13 10 -20 26 -14 36 14 23
115 7 138 -22 9 -11 58 -30 110 -42 52 -12 106 -33 120 -46 14 -12 34 -23 43
-23 25 0 22 -43 -4 -70 -34 -33 -28 -52 12 -42 23 6 45 0 60 -15 30 -30 105
-35 136 -10 16 14 23 14 27 1 12 -36 165 -46 196 -14 15 17 36 30 47 30 11 0
38 14 59 31 36 28 46 29 118 13 74 -17 192 -21 297 -11 31 3 45 13 45 31 0 14
7 26 15 26 8 0 15 7 15 17 0 9 -10 12 -22 8 -13 -5 -23 -1 -23 10 0 29 88 74
129 66 36 -7 49 9 21 27 -9 5 -12 15 -7 23 13 21 -22 17 -101 -11 -81 -29 -99
-21 -75 32 12 27 24 35 44 27 25 -9 25 -9 0 17 -34 34 -37 24 49 152 91 134
118 152 179 120 25 -13 59 -23 77 -23 17 0 50 -10 72 -22 74 -40 144 -66 210
-76 43 -7 108 -40 198 -100 141 -95 214 -102 255 -25 20 37 112 48 239 27 114
-18 225 5 225 48 0 7 10 13 23 13 12 0 22 7 22 15 0 8 12 15 28 15 15 0 47 20
71 45 24 24 51 44 60 45 9 0 14 15 11 34 -4 21 8 50 32 77 21 24 38 49 38 56
0 7 10 13 23 13 20 0 20 5 -4 36 -30 40 -56 36 -44 -8 5 -18 -8 -43 -34 -70
-23 -22 -45 -51 -50 -63 -6 -16 -9 -17 -10 -3 0 11 -8 16 -16 10 -10 -6 -10
-18 -1 -36 28 -52 -28 -65 -70 -16 -26 30 -89 43 -72 15 10 -16 -36 -105 -55
-105 -6 0 -24 -14 -40 -31 -18 -20 -32 -25 -39 -15 -5 9 -20 16 -33 16 -26 0
-79 58 -80 88 0 23 -33 16 -41 -10 -4 -10 11 -25 32 -35 22 -10 39 -23 39 -29
0 -7 11 -22 23 -35 13 -13 19 -31 14 -40 -7 -11 -15 -12 -20 -3 -18 27 -147
50 -190 34 -22 -8 -45 -12 -51 -8 -7 4 -38 -13 -69 -37 -67 -54 -62 -53 -126
-11 -28 18 -62 40 -75 49 -13 8 -52 34 -87 56 -35 23 -77 41 -94 41 -16 0 -30
7 -30 15 0 8 -18 15 -39 15 -22 0 -95 18 -162 39 -67 22 -130 42 -140 45 -38
10 -18 36 30 38 69 3 86 6 148 19 41 9 64 6 93 -13 41 -27 203 -21 221 8 5 8
44 19 87 24 44 5 72 14 64 19 -8 5 -18 36 -21 69 l-6 60 -2 -63 c-3 -63 -67
-100 -106 -61 -9 9 -25 8 -42 -2 -21 -12 -22 -16 -5 -17 19 -1 18 -3 -2 -15
-30 -18 -152 -24 -176 -9 -39 24 -14 42 51 37 57 -5 64 -3 43 13 -14 10 -31
14 -39 10 -7 -5 -9 10 -4 34 l9 43 -35 -42 c-38 -43 -136 -78 -256 -90 -86 -9
-88 1 -12 63 112 92 159 144 194 218 39 82 80 248 62 248 -6 0 -15 -26 -20
-57 -17 -107 -150 -323 -207 -338 -41 -11 -53 29 -19 66 17 19 22 35 12 41
-16 11 -10 157 7 147 5 -3 11 19 13 49 7 119 -42 -46 -64 -212 -5 -40 -15 -68
-23 -63 -8 5 -13 4 -11 -3 7 -26 -20 -125 -34 -125 -8 0 -14 10 -14 23 0 34
-23 26 -41 -13 -16 -35 -53 -43 -91 -19 -11 6 -29 3 -42 -7 -17 -15 -34 -13
-85 8 -175 74 -194 85 -185 106 11 29 -21 28 -62 -1 -18 -12 -72 -25 -119 -28
-48 -3 -122 -11 -164 -17 -53 -7 -112 -2 -187 15 -138 31 -148 38 -95 63 24
11 31 17 16 13 -96 -27 -105 -28 -96 -4 6 17 1 21 -20 15 -32 -8 -40 18 -10
36 10 6 49 17 86 22 60 10 57 11 -26 7 -55 -2 -96 3 -99 12 -3 10 -16 5 -31
-10 -30 -30 -42 -31 -140 -12 -39 8 -136 18 -214 22 -215 12 -313 26 -332 49
-9 11 -26 20 -37 20 -11 0 -38 17 -60 38 -45 41 -91 46 -167 19 -32 -12 -54
-13 -61 -4 -15 20 -151 82 -263 118 -22 7 -24 14 -12 29 9 11 12 25 6 31 -26
26 43 34 248 29 121 -3 641 -5 1155 -5 793 0 952 -4 1049 -24 63 -13 136 -19
163 -14 38 7 53 3 65 -18 14 -24 15 -24 16 -1 0 24 81 25 1211 24 1580 -1
1801 1 1776 17 -13 7 98 12 270 12 252 -1 338 -16 156 -27 -46 -2 -36 -6 43
-14 70 -7 109 -18 122 -35 21 -30 47 -32 57 -6 6 14 12 13 24 -4 14 -20 18
-20 31 0 12 19 1 25 -63 34 -109 16 -112 29 -4 17 49 -6 93 -15 97 -21 11 -16
100 -35 180 -39 37 -1 174 -7 304 -11 l236 -9 0 58 0 58 -454 8 c-319 5 -487
14 -566 31 -62 12 -187 23 -277 23 -108 0 -225 12 -334 34 -156 30 -176 31
-255 12 -52 -13 -143 -20 -226 -18 -77 2 -167 -4 -200 -12 -58 -16 -145 0
-185 33 -8 7 -28 12 -45 12 -49 0 -68 30 -68 107 0 105 -32 117 -118 42 -77
-69 -109 -73 -150 -21 -29 37 -31 37 -61 12 -93 -80 -301 -22 -301 83 l0 52
-35 -32 c-25 -24 -53 -33 -102 -33 -39 0 -79 -10 -96 -24 -27 -22 -27 -23 -2
-15 103 33 147 29 137 -11 -8 -33 -3 -42 31 -58 l41 -19 -36 -10 c-41 -12
-225 -14 -197 -3 23 9 25 35 3 35 -29 0 -61 -41 -40 -51 10 -4 -37 -6 -104 -5
-68 2 -117 7 -110 11 7 4 -4 16 -24 25 -29 14 -36 13 -36 -3 0 -11 -8 -25 -17
-31 -11 -7 -14 -4 -7 7 9 15 -67 27 -116 18 -7 -1 -27 2 -44 8 -47 15 3 47 67
43 59 -3 91 21 63 49 -25 25 -58 24 -81 -3 -10 -13 -28 -23 -40 -23 -12 0 -40
-13 -62 -29 -24 -18 -76 -33 -128 -38 -48 -4 -97 -13 -109 -20 -41 -23 -123
-1 -183 50 -61 53 -138 83 -138 54 0 -39 -131 12 -145 56 -17 53 -58 122 -72
122 -29 1 -98 74 -98 103 0 17 -7 34 -15 40 -8 5 -15 31 -15 59 0 108 -39 134
-55 36z m13 -375 c71 -37 134 -137 105 -166 -15 -15 -387 -18 -434 -3 -19 6
-15 -2 11 -25 l38 -33 -120 11 c-142 12 -197 39 -173 84 10 17 32 29 54 29 20
0 52 10 70 22 23 14 71 21 146 20 95 -1 124 5 186 38 86 46 77 45 117 23z
m1718 -37 c-5 -5 -18 -6 -29 -1 -12 5 -8 8 9 9 16 0 25 -3 20 -8z m-5370 -15
c-5 -5 -18 -6 -29 -1 -12 5 -8 8 9 9 16 0 25 -3 20 -8z m164 -16 c-5 -5 -14
-5 -20 0 -6 6 -1 10 10 10 11 0 16 -4 10 -10z m5606 -48 c14 -15 40 -26 58
-24 19 2 42 4 53 5 11 1 16 9 11 17 -11 17 -5 19 28 6 31 -12 31 -42 0 -67
-18 -15 -30 -16 -52 -2 -15 10 -38 13 -51 9 -26 -10 -62 14 -84 57 -19 35 4
35 37 -1z m-5835 -7 c-4 -11 -17 -20 -29 -20 -27 0 -29 20 -3 30 32 13 40 11
32 -10z m5484 5 c0 -8 -3 -15 -7 -15 -3 0 -10 7 -15 15 -6 8 -3 15 6 15 9 0
16 -7 16 -15z m300 -22 c0 -13 -10 -23 -22 -23 -25 0 -42 21 -28 35 18 18 50
10 50 -12z m-1879 -32 c-5 -5 -18 -6 -29 -1 -12 5 -8 8 9 9 16 0 25 -3 20 -8z
m-71 -35 c12 -8 17 -19 11 -25 -13 -13 -56 4 -56 24 0 19 16 19 45 1z m2243
-17 c5 -8 -5 -14 -21 -14 -39 0 -54 23 -16 26 16 1 32 -4 37 -12z m-2653 -69
c-5 -5 -14 -5 -20 0 -5 6 -1 10 10 10 11 0 16 -4 10 -10z m324 0 c-11 -4 -27
-4 -38 0 -10 4 -2 8 19 8 21 0 29 -4 19 -8z m142 0 c-14 -4 -38 -4 -52 0 -15
3 -3 7 26 7 29 0 41 -4 26 -7z m-2846 -141 c0 -26 -79 -48 -109 -30 -20 13
-26 11 -26 -6 0 -13 12 -23 26 -23 14 0 -1 -13 -33 -30 -57 -29 -82 -23 -83
19 0 31 63 74 118 82 34 4 57 14 52 22 -5 8 6 7 23 -2 18 -9 32 -24 32 -32z
m7090 36 c-5 -5 -14 -5 -20 0 -6 6 -1 10 10 10 11 0 16 -4 10 -10z m405 -30
c-5 -5 -14 -5 -20 0 -6 6 -1 10 10 10 11 0 16 -4 10 -10z m-6910 -65 c0 -8 -7
-15 -15 -15 -8 0 -15 7 -15 15 0 8 7 15 15 15 8 0 15 -7 15 -15z m85 -23 c0
-14 -9 -20 -21 -15 -12 4 -29 8 -39 9 -10 1 -4 7 13 14 42 18 47 18 47 -8z
m328 -37 c-6 -8 -22 -15 -38 -15 -16 0 -32 7 -37 15 -6 9 10 15 37 15 27 0 43
-6 38 -15z m-2004 -20 c-18 -16 -89 -24 -89 -10 0 8 21 15 48 15 26 0 44 -2
41 -5z m566 -50 c-5 -5 -14 -5 -20 0 -6 6 -1 10 10 10 11 0 16 -4 10 -10z
m2285 -80 c0 -8 -6 -15 -14 -15 -8 0 -18 7 -23 15 -6 8 1 15 14 15 12 0 23 -7
23 -15z m-442 -90 c74 -15 145 -29 157 -32 17 -4 21 5 18 36 -2 22 3 41 12 41
33 0 158 -34 172 -47 8 -7 26 -13 41 -13 30 0 35 -38 13 -93 -8 -19 -18 -51
-22 -72 -19 -85 -92 -94 -79 -10 3 18 3 24 -1 14 -9 -27 -46 -23 -92 10 -22
15 -75 40 -119 54 -43 14 -78 31 -78 39 0 7 -10 13 -22 13 -50 0 -19 -30 53
-51 41 -13 94 -36 118 -53 24 -17 49 -31 56 -31 37 0 101 -72 83 -93 -10 -12
-14 -26 -9 -31 46 -46 -156 -40 -221 6 -22 15 -51 24 -64 19 -14 -5 -33 -3
-43 6 -29 23 -75 26 -111 6 -52 -28 -84 -7 -74 48 7 37 1 54 -29 82 -43 41
-37 66 5 27 16 -14 32 -21 37 -16 6 6 48 -5 94 -24 45 -19 87 -30 93 -24 5 5
-19 21 -53 35 -68 29 -78 43 -37 54 15 4 -3 6 -40 5 -63 -2 -67 0 -81 46 -12
40 -24 50 -68 59 -51 10 -52 11 -17 20 49 13 140 4 308 -30z m-278 -38 c0 -26
-13 -27 -45 -7 -20 13 -20 17 -1 29 26 17 46 7 46 -22z m2025 15 c0 -13 -7
-20 -15 -14 -9 5 -12 15 -7 23 13 21 22 17 22 -9z m-1095 -77 c94 -22 176 -33
203 -27 213 44 349 34 532 -39 37 -15 93 -36 124 -46 62 -21 67 -30 33 -59
-13 -10 -51 -65 -85 -122 -33 -56 -68 -102 -77 -102 -13 0 -13 -3 -1 -11 11
-8 13 -38 7 -88 -11 -83 -46 -135 -72 -109 -11 11 -25 9 -47 -4 -25 -16 -41
-16 -81 -1 -28 10 -68 18 -89 18 -21 0 -38 8 -38 19 0 10 0 34 -2 53 l-2 35
-49 -38 c-27 -20 -62 -36 -78 -34 -21 2 -30 -7 -30 -27 -1 -36 -122 -43 -143
-8 -8 12 -28 16 -57 10 -64 -12 -68 2 -16 58 43 45 53 49 143 49 53 0 101 4
106 9 5 5 -26 9 -68 9 -59 0 -78 5 -78 23 0 12 7 22 15 22 8 0 15 10 15 23 0
12 7 22 15 22 8 0 15 -12 15 -26 0 -22 3 -23 14 -5 19 31 99 2 96 -34 -2 -30
2 -30 43 -8 30 16 28 18 -32 46 l-65 29 41 22 c23 11 51 21 63 21 12 0 18 7
13 15 -5 7 -29 10 -54 5 -69 -14 -52 19 20 37 l64 16 -57 -5 c-56 -5 -88 12
-52 28 10 5 3 5 -15 0 -28 -6 -34 -2 -34 25 0 43 -8 34 -21 -23 -7 -33 -6 -39
5 -23 13 19 16 19 16 -4 0 -14 -10 -26 -22 -26 -13 0 -23 -7 -23 -15 0 -8 11
-15 26 -15 15 0 20 -5 11 -14 -17 -16 -157 -3 -157 14 0 16 45 32 61 22 8 -5
9 2 4 16 -6 17 -14 19 -25 8 -24 -24 -198 -20 -219 5 -22 27 111 99 185 99 29
0 86 7 127 16 50 11 84 11 102 1 42 -22 159 -27 166 -6 4 10 -8 17 -29 15
-102 -5 -141 4 -110 27 16 12 44 22 62 22 19 0 38 7 44 15 5 8 35 15 68 15 32
0 59 7 59 15 0 28 -79 14 -244 -43 -48 -17 -136 -33 -196 -37 -60 -3 -124 -14
-142 -24 -27 -14 -33 -13 -33 6 0 13 -7 23 -15 23 -8 0 -14 -5 -13 -11 5 -31
-5 -48 -33 -57 -17 -5 -37 -26 -44 -46 -12 -29 -25 -36 -69 -36 -39 0 -69 -13
-106 -45 -48 -42 -107 -58 -130 -35 -16 16 22 50 56 50 48 0 136 70 138 109 1
19 13 66 26 105 14 40 25 86 25 103 0 24 6 29 26 20 15 -5 97 -27 184 -47z
m-2525 -135 c-5 -5 -14 -5 -20 0 -6 6 -1 10 10 10 11 0 16 -4 10 -10z m105
-60 c-5 -5 -10 -1 -10 10 0 11 5 16 10 10 6 -5 6 -14 0 -20z m380 -5 c14 -26
12 -29 -14 -25 -43 6 -56 24 -31 41 29 18 26 19 45 -16z m90 15 c0 -8 -7 -15
-16 -15 -9 0 -12 7 -6 15 5 8 12 15 15 15 4 0 7 -7 7 -15z m-275 -27 c-16 -3
-35 1 -43 9 -9 9 1 11 28 6 32 -7 35 -11 15 -15z m4603 -3 c5 -8 -8 -21 -28
-29 -20 -8 -42 -21 -47 -30 -5 -9 -17 -16 -27 -16 -9 0 3 20 27 45 46 48 60
54 75 30z m-4512 -9 c-5 -5 -18 -6 -29 -1 -12 5 -8 8 9 9 16 0 25 -3 20 -8z
m224 -31 c-5 -6 -10 -1 -10 10 0 11 5 16 10 10 6 -5 6 -14 0 -20z m1385 -60
c20 -22 19 -23 -15 -15 -24 6 -47 0 -67 -19 -50 -45 -110 -48 -151 -6 -34 33
-36 80 -5 80 8 0 11 6 7 13 -14 22 208 -28 231 -53z m445 -15 c10 -24 51 -39
46 -16 -10 52 69 16 89 -39 23 -68 17 -86 -27 -77 -26 5 -28 2 -12 -17 16 -19
16 -26 -2 -37 -29 -18 -41 -17 -48 5 -4 10 -5 6 -2 -10 10 -66 -56 -79 -117
-24 -23 21 -71 47 -107 58 -159 47 -93 184 85 178 53 -1 91 -10 95 -21z m-960
0 c-5 -6 -14 -6 -20 0 -5 6 -1 10 10 10 11 0 16 -4 10 -10z m121 -14 c-5 -5
-18 -6 -29 -1 -12 5 -8 8 9 9 16 0 25 -3 20 -8z m-436 -16 c-5 -6 -15 -6 -20
0 -5 6 -1 10 10 10 11 0 16 -4 10 -10z m150 0 c-5 -6 -14 -6 -20 0 -5 6 -1 10
10 10 11 0 16 -4 10 -10z m1335 -13 c16 -43 -27 -74 -50 -34 -10 19 -19 40
-19 46 -1 21 60 11 69 -12z m-1236 -24 c-11 -11 -19 -10 -27 3 -8 12 -5 15 6
8 9 -6 17 -2 17 8 0 10 5 13 10 8 6 -6 3 -18 -6 -27z m-54 7 c-5 -6 -14 -6
-20 0 -5 6 -1 10 10 10 11 0 16 -4 10 -10z m170 -26 c0 -20 2 -46 5 -57 3 -11
2 -14 -1 -8 -4 6 -23 7 -43 2 -32 -8 -36 -4 -36 36 0 42 11 53 64 61 6 1 11
-14 11 -34z m366 -30 c-4 -12 -1 -25 7 -30 21 -14 4 -54 -23 -54 -12 0 -18 7
-13 15 5 7 -5 23 -21 33 -39 24 -40 47 -2 35 16 -5 33 -2 38 6 14 23 23 20 14
-5z m-316 -46 c5 -13 3 -23 -5 -23 -8 0 -15 10 -15 23 0 12 3 22 6 22 3 0 10
-10 14 -22z m349 -94 c20 4 41 1 45 -7 5 -8 -13 -12 -41 -9 -32 3 -51 13 -52
27 -1 16 1 17 5 2 4 -12 21 -17 43 -13z m978 23 c-10 -28 -42 -32 -42 -6 0 13
11 24 24 24 13 0 21 -8 18 -18z m-889 -72 c5 -8 2 -15 -6 -15 -8 0 -19 7 -24
15 -6 8 -3 15 5 15 8 0 19 -7 25 -15z m577 0 c0 -9 -10 -20 -22 -25 -31 -11
-72 6 -61 25 13 20 83 19 83 0z m-157 -16 c14 -22 -2 -34 -31 -23 -13 5 -20
16 -15 24 13 20 34 19 46 -1z m273 -25 c4 -12 -8 -19 -31 -19 -40 0 -62 18
-44 36 16 16 68 4 75 -17z m-221 -34 c0 -8 -3 -15 -7 -15 -3 0 -10 7 -15 15
-6 8 -3 15 6 15 9 0 16 -7 16 -15z m55 5 c-5 -6 -14 -6 -20 0 -5 6 -1 10 10
10 11 0 16 -4 10 -10z m159 -31 c-19 -3 -49 -3 -68 0 -18 4 -3 7 34 7 37 0 52
-3 34 -7z"/>
<path d="M2640 1282 c0 -12 40 -52 51 -52 21 0 6 30 -21 45 -16 9 -30 12 -30
7z"/>
<path d="M3785 1190 c6 -5 15 -5 20 0 6 6 1 10 -10 10 -11 0 -15 -4 -10 -10z"/>
<path d="M3815 1025 c6 -5 14 -5 20 0 5 6 1 10 -10 10 -11 0 -15 -4 -10 -10z"/>
<path d="M4013 793 c-52 -19 -85 -24 -105 -15 -40 18 -117 20 -107 4 5 -8 46
-18 91 -24 60 -7 83 -17 83 -33 0 -12 8 -20 19 -16 10 3 19 15 19 26 0 19 51
46 68 37 4 -3 8 8 8 24 0 16 -1 28 -1 28 0 -1 -34 -15 -75 -31z"/>
<path d="M3570 645 l-37 -12 41 -2 c22 0 41 6 41 14 0 8 -2 14 -4 14 -2 -1
-20 -7 -41 -14z"/>
<path d="M3361 801 c1 -17 4 -21 9 -9 5 11 4 24 -1 29 -5 5 -8 -4 -8 -20z"/>
<path d="M3405 795 c0 -11 5 -16 10 -10 6 6 6 15 0 20 -5 6 -10 1 -10 -10z"/>
<path d="M3270 705 c0 -11 5 -16 10 -10 6 6 6 15 0 20 -5 6 -10 1 -10 -10z"/>
<path d="M50 2423 c0 -12 6 -18 13 -14 7 5 9 14 4 22 -12 20 -17 17 -17 -8z"/>
<path d="M675 2407 c0 -19 -8 -37 -19 -41 -13 -4 -11 -13 8 -32 25 -25 26 -24
26 9 1 62 21 77 90 68 42 -6 59 -4 49 6 -35 35 -154 27 -154 -10z"/>
<path d="M864 2363 c8 -21 81 -58 92 -47 13 13 -11 36 -55 51 -35 12 -43 12
-37 -4z"/>
<path d="M1655 2180 c6 -5 15 -5 20 0 6 6 1 10 -10 10 -11 0 -15 -4 -10 -10z"/>
<path d="M1568 2136 c-15 -23 -20 -45 -12 -53 8 -8 23 8 38 39 30 62 11 71
-26 14z"/>
<path d="M1866 2157 c-4 -6 2 -12 15 -12 12 0 26 6 30 12 4 7 -2 13 -15 13
-12 0 -26 -6 -30 -13z"/>
<path d="M5293 2160 c-44 -26 -17 -80 34 -69 26 5 50 0 64 -14 25 -25 106 -31
91 -6 -5 9 -21 14 -34 11 -14 -3 -48 17 -75 44 -28 27 -52 49 -53 49 -1 -1
-14 -7 -27 -15z m42 -55 c-5 -5 -14 -5 -20 0 -5 6 -1 10 10 10 11 0 16 -4 10
-10z"/>
<path d="M1425 2115 c0 -11 5 -15 10 -10 6 6 6 15 0 20 -5 6 -10 1 -10 -10z"/>
<path d="M1800 2115 c0 -8 7 -15 15 -15 8 0 15 7 15 15 0 8 -7 15 -15 15 -8 0
-15 -7 -15 -15z"/>
<path d="M1740 2085 c0 -8 -11 -15 -25 -15 -14 0 -21 -4 -16 -9 14 -14 86 7
86 24 0 8 -10 15 -22 15 -13 0 -23 -7 -23 -15z"/>
<path d="M5197 2084 c-13 -21 7 -40 20 -20 6 9 21 20 33 25 15 6 12 9 -10 10
-18 0 -38 -6 -43 -15z"/>
<path d="M5615 2075 c6 -5 15 -5 20 0 6 6 1 10 -10 10 -11 0 -15 -4 -10 -10z"/>
<path d="M1655 2045 c6 -5 15 -5 20 0 6 6 1 10 -10 10 -11 0 -15 -4 -10 -10z"/>
<path d="M1523 2025 c-6 -8 -3 -15 6 -15 9 0 16 7 16 15 0 8 -3 15 -7 15 -3 0
-10 -7 -15 -15z"/>
<path d="M1572 2030 c11 -5 24 -4 29 1 5 5 -4 8 -20 8 -17 -1 -21 -4 -9 -9z"/>
<path d="M5558 2025 c-6 -9 10 -15 37 -15 27 0 43 6 38 15 -6 8 -22 15 -38 15
-16 0 -32 -7 -37 -15z"/>
<path d="M5310 1980 c12 -8 39 -14 60 -14 34 1 35 2 8 14 -45 19 -98 19 -68 0z"/>
<path d="M1895 1910 c6 -5 15 -5 20 0 6 6 1 10 -10 10 -11 0 -15 -4 -10 -10z"/>
<path d="M1947 1910 c11 -5 24 -4 29 1 5 5 -4 8 -20 8 -17 -1 -21 -4 -9 -9z"/>
<path d="M1781 1895 c11 -4 27 -4 38 0 10 4 2 8 -19 8 -21 0 -29 -4 -19 -8z"/>
<path d="M1730 1880 c6 -5 15 -5 20 0 6 6 1 10 -10 10 -11 0 -15 -4 -10 -10z"/>
<path d="M8037 1715 c11 -5 24 -4 29 1 5 5 -4 8 -20 8 -17 -1 -21 -4 -9 -9z"/>
<path d="M2280 1695 c0 -11 5 -15 10 -10 6 6 6 15 0 20 -5 6 -10 1 -10 -10z"/>
<path d="M2190 1680 c0 -11 5 -15 10 -10 6 6 6 15 0 20 -5 6 -10 1 -10 -10z"/>
<path d="M8138 1650 c5 -8 12 -15 15 -15 4 0 7 7 7 15 0 8 -7 15 -16 15 -9 0
-12 -7 -6 -15z"/>
<path d="M825 1605 c0 -8 7 -15 16 -15 9 0 12 7 7 15 -6 8 -13 15 -16 15 -4 0
-7 -7 -7 -15z"/>
<path d="M3710 1595 c6 -5 15 -5 20 0 6 6 1 10 -10 10 -11 0 -15 -4 -10 -10z"/>
<path d="M1575 1560 l-67 -10 79 -3 c50 -1 76 4 71 13 -6 8 -11 14 -13 13 -1
-1 -33 -7 -70 -13z"/>
<path d="M1290 1545 c0 -8 14 -15 30 -15 17 0 30 7 30 15 0 8 -13 15 -30 15
-16 0 -30 -7 -30 -15z"/>
<path d="M2588 1545 l-45 -11 48 -2 c27 -1 49 5 49 13 0 8 -2 14 -4 13 -2 -1
-24 -7 -48 -13z"/>
<path d="M3555 1512 c-25 -10 -31 -18 -17 -23 11 -4 31 3 44 17 28 27 25 28
-27 6z"/>
<path d="M3413 1470 l-30 -13 30 1 c16 0 46 5 67 12 l38 12 -38 0 c-21 1 -51
-5 -67 -12z"/>
<path d="M345 1455 c0 -11 5 -15 10 -10 6 6 6 15 0 20 -5 6 -10 1 -10 -10z"/>
<path d="M387 1460 c11 -5 24 -4 29 1 5 5 -4 8 -20 8 -17 -1 -21 -4 -9 -9z"/>
<path d="M705 1455 c0 -8 -12 -16 -26 -16 -16 -1 -19 -4 -8 -9 43 -17 14 -35
-45 -28 -35 5 -53 4 -41 0 79 -31 89 -40 66 -63 -13 -13 -19 -32 -15 -44 5
-12 2 -17 -6 -12 -16 9 -21 -12 -6 -27 19 -19 52 8 43 36 -10 33 21 38 51 9
15 -15 17 -13 9 8 -7 17 -3 26 10 26 14 1 13 6 -5 16 -19 11 -23 27 -17 67 5
28 5 52 -1 52 -5 0 -9 -7 -9 -15z"/>
<path d="M5075 1460 c6 -5 15 -5 20 0 6 6 1 10 -10 10 -11 0 -15 -4 -10 -10z"/>
<path d="M5180 1460 c6 -5 15 -5 20 0 6 6 1 10 -10 10 -11 0 -15 -4 -10 -10z"/>
<path d="M5071 1386 c1 -17 4 -21 9 -9 5 11 4 24 -1 29 -5 5 -8 -4 -8 -20z"/>
<path d="M1950 1365 c0 -11 5 -15 10 -10 6 6 6 15 0 20 -5 6 -10 1 -10 -10z"/>
<path d="M1069 1327 c-68 -9 -129 -22 -135 -29 -6 -7 19 -8 56 -2 198 31 192
31 211 -11 17 -37 22 -38 121 -30 97 7 104 6 118 -27 13 -30 14 -27 6 17 -12
66 -28 76 -79 52 -67 -33 -156 -34 -143 -2 15 40 -29 49 -155 32z"/>
<path d="M1362 1340 c11 -5 24 -4 29 1 5 5 -4 8 -20 8 -17 -1 -21 -4 -9 -9z"/>
<path d="M1828 1321 c19 -17 43 -31 52 -31 18 0 -7 20 -57 46 -24 12 -23 9 5
-15z"/>
<path d="M1950 1296 c0 -4 16 -29 36 -56 19 -26 40 -62 45 -80 6 -18 21 -41
35 -52 13 -11 21 -14 18 -5 -50 117 -134 240 -134 193z"/>
<path d="M4958 1275 c-6 -8 0 -11 14 -6 26 10 30 21 9 21 -8 0 -18 -7 -23 -15z"/>
<path d="M968 1260 c5 -8 20 -15 34 -15 22 0 22 2 3 15 -29 19 -49 19 -37 0z"/>
<path d="M5202 1265 c11 -5 24 -4 29 1 5 5 -4 8 -20 8 -17 -1 -21 -4 -9 -9z"/>
<path d="M5255 1265 c6 -5 15 -5 20 0 6 6 1 10 -10 10 -11 0 -15 -4 -10 -10z"/>
<path d="M5791 1248 c-1 -23 5 -31 16 -24 21 12 6 -17 -28 -57 -12 -14 -17
-33 -11 -43 9 -14 16 -14 28 2 29 36 84 63 84 40 1 -20 59 48 60 69 0 8 -17 2
-38 -11 -33 -22 -39 -22 -46 -2 -5 13 -18 23 -29 23 -11 0 -23 8 -27 19 -4 10
-8 3 -9 -16z"/>
<path d="M1092 1250 c11 -5 24 -4 29 1 5 5 -4 8 -20 8 -17 -1 -21 -4 -9 -9z"/>
<path d="M1531 1231 c-13 -8 -9 -14 13 -20 17 -5 34 -3 38 4 11 17 -29 29 -51
16z"/>
<path d="M5330 1235 c6 -5 15 -5 20 0 6 6 1 10 -10 10 -11 0 -15 -4 -10 -10z"/>
<path d="M5495 1235 c6 -5 15 -5 20 0 6 6 1 10 -10 10 -11 0 -15 -4 -10 -10z"/>
<path d="M7775 1235 c6 -5 14 -5 20 0 6 6 1 10 -10 10 -11 0 -16 -4 -10 -10z"/>
<path d="M1733 1185 c5 -8 12 -15 15 -15 4 0 7 7 7 15 0 8 -7 15 -16 15 -9 0
-12 -7 -6 -15z"/>
<path d="M2100 1171 c24 -45 48 -53 28 -9 -10 21 -24 38 -31 38 -7 0 -6 -13 3
-29z"/>
<path d="M640 1133 c4 -13 14 -19 22 -14 16 9 3 36 -17 36 -8 0 -10 -10 -5
-22z"/>
<path d="M2138 1095 c5 -8 12 -15 16 -15 4 0 4 7 -1 15 -6 8 -13 15 -17 15 -4
0 -4 -7 2 -15z"/>
<path d="M2385 1095 c0 -11 5 -15 10 -10 6 6 6 15 0 20 -5 6 -10 1 -10 -10z"/>
<path d="M6000 1005 c0 -8 10 -15 23 -15 12 0 22 3 22 6 0 3 -10 10 -22 14
-13 5 -23 3 -23 -5z"/>
<path d="M2420 995 c6 -5 15 -5 20 0 6 6 1 10 -10 10 -11 0 -15 -4 -10 -10z"/>
<path d="M1640 965 c6 -6 15 -6 20 0 6 6 1 10 -10 10 -11 0 -15 -4 -10 -10z"/>
<path d="M4315 847 c-5 -12 -3 -22 5 -22 20 0 33 27 17 36 -8 5 -18 -1 -22
-14z"/>
<path d="M4676 799 c-64 -7 -61 -34 4 -34 55 0 92 14 82 32 -5 7 -13 12 -19
10 -6 -1 -36 -5 -67 -8z"/>
<path d="M1539 752 c-35 -14 15 -60 99 -91 27 -11 63 -24 80 -31 142 -55 533
-92 571 -53 21 21 17 23 -38 23 -41 0 -60 6 -57 19 2 12 -17 19 -56 20 -33 1
-88 9 -121 18 -33 10 -118 28 -187 41 -70 13 -156 34 -192 45 -35 12 -66 22
-67 21 -2 -1 -16 -6 -32 -12z m51 -9 c0 -3 -7 -10 -15 -15 -8 -6 -15 -3 -15 6
0 9 7 16 15 16 8 0 15 -3 15 -7z m220 -78 c-5 -6 -10 -1 -10 10 0 11 5 16 10
10 6 -5 6 -14 0 -20z m110 -20 c0 -8 -15 -15 -34 -15 -27 0 -29 3 -11 15 29
19 45 19 45 0z"/>
<path d="M4568 740 c-17 -3 -46 -9 -65 -13 -18 -4 -49 -23 -67 -41 -18 -18
-53 -42 -78 -52 l-45 -19 57 8 c36 6 71 23 90 46 30 35 44 38 166 41 100 2
136 8 141 24 5 16 -2 18 -29 9 -42 -13 -69 -14 -110 -3 -17 4 -44 4 -60 0z"/>
<path d="M2599 716 c6 -17 31 -17 37 0 3 8 -6 14 -18 14 -13 0 -22 -6 -19 -14z"/>
<path d="M2349 561 c-13 -34 -12 -36 21 -36 20 0 30 10 30 30 0 36 -38 40 -51
6z"/>
<path d="M2415 549 c0 -33 42 -40 94 -16 30 13 35 18 13 13 -24 -6 -32 -4 -25
7 6 11 -6 17 -36 17 -29 0 -46 -8 -46 -21z"/>
<path d="M3495 361 c12 -9 43 -16 68 -16 35 0 40 -4 22 -16 -17 -11 -12 -13
18 -6 31 8 45 2 64 -28 34 -52 407 -132 600 -130 47 1 -15 34 -74 39 -76 7
-143 24 -143 35 0 6 32 6 71 0 128 -22 175 -18 147 10 -13 13 -37 21 -54 17
-16 -5 -29 -2 -29 5 0 8 -19 14 -41 14 -23 0 -126 14 -229 31 -103 17 -202 28
-221 25 -18 -4 -30 -2 -27 4 4 6 -11 10 -34 10 -22 -1 -67 3 -100 10 -43 8
-54 7 -38 -4z m370 -71 c-5 -5 -14 -5 -20 0 -5 6 -1 10 10 10 11 0 15 -4 10
-10z m-104 -14 c-5 -5 -18 -6 -29 -1 -12 5 -8 8 9 9 16 0 25 -3 20 -8z"/>
<path d="M4320 238 c0 -7 5 -14 11 -14 157 -16 202 -32 147 -53 -15 -6 -31 -2
-38 9 -8 13 -19 14 -38 4 -36 -20 4 -27 406 -62 408 -37 685 -49 674 -31 -5 8
-47 14 -94 15 -47 0 -116 7 -153 16 -114 27 -195 33 -195 15 0 -10 -26 -17
-60 -17 -57 0 -82 21 -41 34 10 4 1 4 -21 0 -22 -3 -45 1 -50 10 -5 9 -23 16
-40 16 -16 0 -26 -7 -20 -15 5 -8 -2 -15 -15 -15 -12 0 -23 9 -23 21 0 15 -42
26 -154 39 -84 10 -186 24 -225 30 -39 6 -71 5 -71 -2z"/>
<path d="M5539 65 c14 -4 38 -4 52 0 15 3 3 7 -26 7 -29 0 -41 -4 -26 -7z"/>
<path d="M5810 50 c6 -5 15 -5 20 0 6 6 1 10 -10 10 -11 0 -15 -4 -10 -10z"/>
</g>
</svg>
